<?xml version="1.0" standalone="no"?>
<!DOCTYPE svg PUBLIC "-//W3C//DTD SVG 1.1//EN" "http://www.w3.org/Graphics/SVG/1.1/DTD/svg11.dtd" >
<svg xmlns="http://www.w3.org/2000/svg" xmlns:xlink="http://www.w3.org/1999/xlink" version="1.1">
<metadata>
Created by FontForge 20161003 at Fri Nov 17 19:24:24 2017
 By www-data
Copyright (c) 2012 by Rui Abreu, Portugal. All rights reserved.
</metadata>
<defs>
<font id="AzoSans-Bold" horiz-adv-x="532" >
  <font-face 
    font-family="Azo Sans"
    font-weight="700"
    font-stretch="normal"
    units-per-em="1000"
    panose-1="2 0 0 0 0 0 0 0 0 0"
    ascent="772"
    descent="-228"
    x-height="492"
    cap-height="724"
    bbox="-101 -272 1306 1021"
    underline-thickness="50"
    underline-position="-120"
    stemh="139"
    stemv="152"
    unicode-range="U+000D-FB02"
  />
<missing-glyph horiz-adv-x="644" 
d="M150 604l131 131l213 -212l-101 -101l101 -100l-101 -101l101 -100l-132 -132l-212 213l100 100l-100 101l100 100z" />
    <glyph glyph-name="fi" unicode="fi" horiz-adv-x="654" 
d="M90 0v366h-70v126h70v73c0 69 14 128 52 164c35 34 90 46 139 46c28 0 57 -4 84 -14v-123c-19 5 -49 9 -66 9c-47 0 -57 -30 -57 -72v-83h114v-126h-114v-366h-152zM427 648c0 48 40 87 88 87s88 -39 88 -87s-40 -87 -88 -87s-88 39 -88 87zM439 0v492h152v-492h-152z
" />
    <glyph glyph-name="fl" unicode="fl" horiz-adv-x="654" 
d="M90 0v366h-70v126h70v73c0 69 14 128 52 164c35 34 90 46 139 46c28 0 57 -4 84 -14v-123c-19 5 -49 9 -66 9c-47 0 -57 -30 -57 -72v-83h114v-126h-114v-366h-152zM439 0v764h152v-764h-152z" />
    <glyph glyph-name=".notdef" horiz-adv-x="644" 
d="M150 604l131 131l213 -212l-101 -101l101 -100l-101 -101l101 -100l-132 -132l-212 213l100 100l-100 101l100 100z" />
    <glyph glyph-name=".null" horiz-adv-x="0" 
 />
    <glyph glyph-name=".null" horiz-adv-x="0" 
 />
    <glyph glyph-name="CR" unicode="&#xd;" horiz-adv-x="357" 
 />
    <glyph glyph-name="space" unicode=" " horiz-adv-x="237" 
 />
    <glyph glyph-name="A" unicode="A" horiz-adv-x="748" 
d="M3 0l294 724h154l294 -724h-170l-58 152h-292l-59 -152h-163zM303 354l-29 -77h195l-30 81c-21 57 -47 129 -66 184h-2c-19 -55 -45 -127 -68 -188z" />
    <glyph glyph-name="C" unicode="C" horiz-adv-x="681" 
d="M35 361c0 210 161 374 394 374c73 0 144 -17 201 -45v-161c-53 36 -126 63 -200 63c-140 0 -236 -98 -236 -229c0 -129 93 -231 242 -231c75 0 145 26 205 67v-162c-62 -33 -140 -48 -212 -48c-233 0 -394 161 -394 372z" />
    <glyph glyph-name="D" unicode="D" horiz-adv-x="743" 
d="M66 0v724h203c288 0 443 -129 443 -361c0 -222 -140 -363 -450 -363h-196zM225 139h44c200 0 284 81 284 224c0 76 -30 140 -84 178c-51 36 -120 44 -201 44h-43v-446z" />
    <glyph glyph-name="E" unicode="E" horiz-adv-x="561" 
d="M66 0v724h447v-139h-288v-142h248v-132h-248v-172h299v-139h-458z" />
    <glyph glyph-name="F" unicode="F" horiz-adv-x="566" 
d="M66 0v724h459v-139h-300v-156h258v-132h-258v-297h-159z" />
    <glyph glyph-name="G" unicode="G" horiz-adv-x="736" 
d="M35 359c0 214 165 376 396 376c89 0 166 -24 222 -55v-160c-61 42 -140 72 -219 72c-146 0 -240 -103 -240 -232c0 -126 90 -232 239 -232c33 0 65 6 89 16v109h-126v132h280v-336c-65 -36 -156 -60 -246 -60c-232 0 -395 157 -395 370z" />
    <glyph glyph-name="H" unicode="H" horiz-adv-x="763" 
d="M66 0v724h159v-280h313v280h159v-724h-159v305h-313v-305h-159z" />
    <glyph glyph-name="I" unicode="I" horiz-adv-x="291" 
d="M66 0v724h159v-724h-159z" />
    <glyph glyph-name="K" unicode="K" horiz-adv-x="674" 
d="M66 0v724h159v-320l2 -1l253 321h189l-274 -336l297 -388h-196l-269 362l-2 -1v-361h-159z" />
    <glyph glyph-name="L" unicode="L" horiz-adv-x="555" 
d="M66 0v724h159v-585h317v-139h-476z" />
    <glyph glyph-name="M" unicode="M" horiz-adv-x="866" 
d="M430 167l-105 149c-36 51 -72 104 -106 155l-2 -1c1 -52 2 -120 2 -180v-290h-153v724h153l215 -306l215 306h151v-724h-159v290c0 60 1 128 2 180l-2 1c-34 -51 -70 -104 -106 -155z" />
    <glyph glyph-name="N" unicode="N" horiz-adv-x="788" 
d="M572 0l-217 292c-47 63 -91 124 -136 187l-2 -1c1 -69 2 -139 2 -209v-269h-153v724h150l217 -292c47 -63 91 -124 136 -187l2 1c-1 69 -2 139 -2 209v269h153v-724h-150z" />
    <glyph glyph-name="O" unicode="O" horiz-adv-x="824" 
d="M412 133c125 0 219 101 219 229s-94 229 -219 229s-219 -101 -219 -229s94 -229 219 -229zM412 -11c-215 0 -378 162 -378 373s163 373 378 373s378 -162 378 -373s-163 -373 -378 -373z" />
    <glyph glyph-name="Q" unicode="Q" horiz-adv-x="824" 
d="M639 -168c-89 41 -171 100 -234 157c-212 4 -371 164 -371 373c0 211 163 373 378 373s378 -162 378 -373c0 -151 -83 -277 -209 -336v-2c61 -40 134 -78 203 -107zM412 133c125 0 219 101 219 229s-94 229 -219 229s-219 -101 -219 -229s94 -229 219 -229z" />
    <glyph glyph-name="S" unicode="S" horiz-adv-x="576" 
d="M61 40v160c78 -50 170 -72 227 -72c58 0 101 23 101 77c0 67 -68 73 -161 103c-100 33 -190 82 -190 208c0 135 102 219 254 219c71 0 158 -18 221 -52v-157c-77 48 -166 70 -222 70c-54 0 -93 -20 -93 -68c0 -64 67 -69 154 -98c109 -36 197 -87 197 -215
c0 -141 -107 -226 -263 -226c-72 0 -159 18 -225 51z" />
    <glyph glyph-name="T" unicode="T" horiz-adv-x="657" 
d="M249 0v585h-234v139h627v-139h-234v-585h-159z" />
    <glyph glyph-name="U" unicode="U" horiz-adv-x="749" 
d="M113 107c-39 58 -54 137 -54 240v377h159v-371c0 -152 34 -221 160 -221c116 0 159 64 159 220v372h153v-373c0 -109 -15 -188 -56 -246c-51 -73 -144 -116 -260 -116s-210 43 -261 118z" />
    <glyph glyph-name="V" unicode="V" horiz-adv-x="707" 
d="M274 0l-277 724h171l116 -318c24 -65 48 -132 70 -197h2c23 66 47 131 72 198l119 317h163l-276 -724h-160z" />
    <glyph glyph-name="W" unicode="W" horiz-adv-x="1053" 
d="M228 0l-221 724h167l92 -311c18 -61 36 -126 52 -187h2c17 62 36 127 55 188l96 310h116l95 -310c19 -62 38 -126 55 -188h2c16 61 35 128 54 190l93 308h160l-223 -724h-168l-78 255c-19 61 -35 115 -51 173h-2c-16 -58 -33 -115 -52 -176l-78 -252h-166z" />
    <glyph glyph-name="X" unicode="X" horiz-adv-x="694" 
d="M-17 0l264 387l-227 337h186l65 -99c27 -41 55 -85 80 -125h1c24 39 52 83 79 124l65 100h178l-227 -337l265 -387h-189l-103 155c-27 40 -52 80 -76 118h-2c-25 -40 -49 -77 -75 -117l-103 -156h-181z" />
    <glyph glyph-name="Y" unicode="Y" horiz-adv-x="689" 
d="M266 0v327l-279 397h185l88 -131c28 -41 59 -89 87 -133h2c28 44 57 89 87 134l87 130h179l-277 -396v-328h-159z" />
    <glyph glyph-name="Z" unicode="Z" horiz-adv-x="650" 
d="M8 2l343 581l-1 2h-310v139h572l1 -2l-343 -581l1 -2h333v-139h-595z" />
    <glyph glyph-name="Eng" unicode="&#x14a;" horiz-adv-x="788" 
d="M722 724v-706c0 -93 -18 -146 -48 -183c-40 -49 -105 -66 -170 -66c-44 0 -82 9 -107 19v143c31 -12 68 -19 92 -19c59 0 73 27 74 100l-208 280c-47 63 -91 124 -136 187l-2 -1c1 -69 2 -139 2 -209v-269h-153v724h150l217 -292c47 -63 91 -124 136 -187l2 1
c-1 69 -2 139 -2 209v269h153z" />
    <glyph glyph-name="Thorn" unicode="&#xde;" horiz-adv-x="639" 
d="M509 177c-56 -33 -128 -45 -234 -45h-50v-132h-159v724h159v-127h56c86 0 158 -8 215 -38c64 -33 117 -95 117 -193c0 -89 -43 -153 -104 -189zM225 261h58c63 0 99 3 126 18c29 16 45 43 45 79c0 41 -19 70 -51 85c-29 13 -68 15 -124 15h-54v-197z" />
    <glyph glyph-name="a" unicode="a" horiz-adv-x="537" 
d="M203 -11c-42 0 -82 10 -114 32c-36 25 -58 64 -58 115c0 54 25 95 60 119c38 26 87 35 138 35c29 0 58 -3 85 -9v19c0 24 -8 42 -19 52c-14 13 -40 21 -76 21c-55 0 -105 -18 -144 -39v131c40 20 100 38 172 38c66 0 125 -15 164 -47c37 -30 55 -74 55 -136v-167
c0 -23 9 -39 30 -39c8 0 17 2 25 6v-114c-17 -9 -44 -15 -73 -15c-40 0 -79 11 -106 39h-2c-32 -23 -81 -41 -137 -41zM245 101c26 0 51 9 69 20v72c-16 5 -38 7 -54 7c-39 0 -78 -12 -78 -50c0 -32 28 -49 63 -49z" />
    <glyph glyph-name="b" unicode="b" horiz-adv-x="605" 
d="M63 -6v770h152v-294l2 -1c30 20 74 34 121 34c122 0 232 -95 232 -248c0 -156 -113 -266 -266 -266c-48 0 -88 11 -122 25zM215 131c20 -11 50 -19 78 -19c82 0 124 64 124 136s-43 128 -118 128c-33 0 -62 -11 -84 -24v-221z" />
    <glyph glyph-name="c" unicode="c" horiz-adv-x="512" 
d="M33 245c0 155 128 258 282 258c55 0 106 -13 146 -33v-141c-44 28 -92 46 -139 46c-81 0 -137 -55 -137 -129c0 -75 57 -128 139 -128c48 0 103 18 144 49v-140c-47 -26 -105 -38 -161 -38c-158 0 -274 108 -274 256z" />
    <glyph glyph-name="d" unicode="d" horiz-adv-x="606" 
d="M36 236c0 155 113 267 260 267c37 0 67 -7 93 -18l2 1v278h152v-764h-149v26l-2 1c-33 -23 -77 -38 -125 -38c-124 0 -231 96 -231 247zM189 243c0 -73 42 -130 117 -130c33 0 63 11 85 25v220c-22 11 -49 19 -79 19c-80 0 -123 -60 -123 -134z" />
    <glyph glyph-name="e" unicode="e" horiz-adv-x="561" 
d="M522 206h-334c17 -68 73 -99 143 -99c55 0 115 19 167 54v-127c-48 -30 -122 -45 -187 -45c-162 0 -279 101 -279 255c0 157 122 259 258 259c121 0 235 -80 235 -245c0 -17 -1 -39 -3 -52zM288 387c-47 0 -88 -29 -101 -85h198c-9 53 -48 85 -97 85z" />
    <glyph glyph-name="f" unicode="f" horiz-adv-x="372" 
d="M90 0v366h-70v126h70v73c0 69 14 128 52 164c35 34 90 46 139 46c28 0 57 -4 84 -14v-123c-19 5 -49 9 -66 9c-47 0 -57 -30 -57 -72v-83h114v-126h-114v-366h-152z" />
    <glyph glyph-name="g" unicode="g" horiz-adv-x="599" 
d="M103 -195v144c50 -31 107 -50 159 -50c74 0 120 38 120 111v27l-2 1c-29 -21 -74 -33 -115 -33c-119 0 -229 92 -229 241c0 144 103 257 256 257c47 0 88 -11 123 -28l119 21v-486c0 -155 -106 -241 -263 -241c-63 0 -125 15 -168 36zM190 252c0 -72 44 -123 115 -123
c27 0 56 8 77 21v206c-19 10 -48 18 -75 18c-79 0 -117 -58 -117 -122z" />
    <glyph glyph-name="h" unicode="h" horiz-adv-x="600" 
d="M63 0v764h152v-316l2 -1c36 30 88 56 150 56c52 0 98 -18 129 -50c30 -32 43 -75 43 -146v-307h-152v282c0 37 -5 55 -17 69c-13 15 -31 21 -52 21c-39 0 -76 -20 -103 -41v-331h-152z" />
    <glyph glyph-name="i" unicode="i" horiz-adv-x="278" 
d="M51 648c0 48 40 87 88 87s88 -39 88 -87s-40 -87 -88 -87s-88 39 -88 87zM63 0v492h152v-492h-152z" />
    <glyph glyph-name="j" unicode="j" horiz-adv-x="281" 
d="M54 648c0 48 40 87 88 87s88 -39 88 -87s-40 -87 -88 -87s-88 39 -88 87zM66 -24v516h152v-506c0 -91 -16 -134 -45 -164c-37 -38 -96 -53 -149 -53c-28 0 -54 4 -69 8v125c16 -3 36 -5 50 -5c53 0 61 29 61 79z" />
    <glyph glyph-name="k" unicode="k" horiz-adv-x="581" 
d="M63 0v764h152v-480l2 -1l172 209h173l-188 -220l202 -272h-180l-179 251l-2 -1v-250h-152z" />
    <glyph glyph-name="l" unicode="l" horiz-adv-x="278" 
d="M63 0v764h152v-764h-152z" />
    <glyph glyph-name="m" unicode="m" horiz-adv-x="912" 
d="M699 0v284c0 37 -6 54 -18 67c-14 15 -32 21 -52 21c-35 0 -71 -18 -97 -41c1 -7 1 -15 1 -22v-309h-152v284c0 33 -5 53 -18 67c-14 15 -32 21 -52 21c-35 0 -71 -19 -96 -40v-332h-152v492h150v-44l2 -1c38 32 88 56 148 56c53 0 114 -21 143 -70c53 47 111 70 173 70
c55 0 98 -19 127 -49c31 -32 45 -75 45 -145v-309h-152z" />
    <glyph glyph-name="n" unicode="n" horiz-adv-x="600" 
d="M63 0v492h150v-45l2 -1c38 31 90 57 152 57c52 0 98 -18 129 -50c30 -32 43 -75 43 -146v-307h-152v282c0 37 -5 55 -17 69c-13 15 -31 21 -52 21c-39 0 -76 -20 -103 -41v-331h-152z" />
    <glyph glyph-name="p" unicode="p" horiz-adv-x="604" 
d="M215 7v-227h-152v712h149v-25l2 -1c32 22 73 37 122 37c126 0 233 -100 233 -253c0 -158 -113 -261 -257 -261c-40 0 -72 8 -95 19zM215 131c19 -10 47 -19 78 -19c79 0 123 57 123 130c0 74 -44 134 -119 134c-31 0 -60 -11 -82 -27v-218z" />
    <glyph glyph-name="q" unicode="q" horiz-adv-x="606" 
d="M36 239c0 154 111 264 263 264c47 0 91 -11 131 -31l113 20v-712h-152v238l-2 1c-28 -16 -67 -30 -116 -30c-130 0 -237 99 -237 250zM189 243c0 -72 42 -131 119 -131c29 0 60 9 83 25v220c-22 10 -50 19 -80 19c-79 0 -122 -60 -122 -133z" />
    <glyph glyph-name="r" unicode="r" horiz-adv-x="401" 
d="M63 0v492h149v-66l2 -1c34 48 82 73 143 73c10 0 21 -1 32 -4v-143c-12 3 -27 5 -41 5c-53 0 -97 -16 -133 -58v-298h-152z" />
    <glyph glyph-name="s" unicode="s" horiz-adv-x="494" 
d="M51 29v133c67 -39 145 -56 192 -56c42 0 67 11 67 38c0 38 -55 34 -129 53c-93 23 -148 62 -148 143c1 104 93 163 215 163c59 0 132 -12 188 -39v-131c-65 37 -141 53 -185 53c-40 0 -64 -12 -64 -35c0 -36 53 -33 126 -51c94 -23 151 -59 151 -144
c-1 -108 -95 -167 -221 -167c-59 0 -134 12 -192 40z" />
    <glyph glyph-name="t" unicode="t" horiz-adv-x="410" 
d="M143 38c-26 28 -43 69 -43 147v181h-80v126h80v128l152 26v-154h130v-126h-130v-165c0 -48 11 -84 57 -84c25 0 53 10 73 20v-121c-23 -15 -68 -27 -111 -27c-50 0 -97 16 -128 49z" />
    <glyph glyph-name="u" unicode="u" horiz-adv-x="605" 
d="M110 38c-32 33 -47 78 -47 151v303h152v-280c0 -36 6 -57 19 -71c13 -15 33 -22 54 -22c38 0 76 21 100 44v329h152v-492h-150v46l-2 1c-38 -33 -86 -58 -150 -58c-57 0 -100 20 -128 49z" />
    <glyph glyph-name="v" unicode="v" horiz-adv-x="557" 
d="M206 0l-200 492h160l58 -158c19 -52 38 -106 55 -156h2c18 50 39 106 59 157l61 157h150l-200 -492h-145z" />
    <glyph glyph-name="w" unicode="w" horiz-adv-x="828" 
d="M180 0l-168 492h158l50 -155c16 -49 30 -95 43 -142h2c14 46 30 95 46 142l53 155h113l52 -155c17 -51 31 -95 45 -142h2c13 47 27 92 43 142l50 155h147l-168 -492h-142l-44 131c-16 48 -31 96 -44 141h-2c-13 -45 -28 -91 -45 -140l-45 -132h-146z" />
    <glyph glyph-name="x" unicode="x" horiz-adv-x="543" 
d="M-8 0l190 263l-168 229h169l37 -55c19 -28 36 -54 54 -83h2c19 30 37 57 54 82l38 56h159l-167 -228l191 -264h-174l-57 85c-20 30 -37 56 -53 82h-2c-16 -26 -33 -52 -53 -82l-57 -85h-163z" />
    <glyph glyph-name="y" unicode="y" horiz-adv-x="558" 
d="M232 -220h-155l129 274l-200 438h160l51 -122c22 -53 43 -105 63 -156h2c22 54 44 106 67 159l52 119h151z" />
    <glyph glyph-name="z" unicode="z" horiz-adv-x="495" 
d="M467 0h-452l-1 2l221 362l-1 2h-198v126h436l1 -2l-221 -362l1 -2h214v-126z" />
    <glyph glyph-name="dotlessi" unicode="&#x131;" horiz-adv-x="278" 
d="M63 0v492h152v-492h-152z" />
    <glyph glyph-name="eth" unicode="&#xf0;" horiz-adv-x="583" 
d="M118 488l-19 91l91 33c-25 16 -52 31 -80 46l93 91c48 -25 91 -54 129 -84l121 45l19 -91l-65 -24c98 -106 147 -228 147 -340c0 -168 -111 -266 -264 -266c-159 0 -263 104 -263 246c0 136 97 243 236 243c31 0 60 -8 81 -21l2 2c-16 29 -40 59 -70 87zM179 239
c0 -68 43 -121 111 -121c70 0 111 54 111 122c0 73 -46 120 -112 120c-67 0 -110 -51 -110 -121z" />
    <glyph glyph-name="grave" unicode="`" 
d="M244 563l-116 164h136l84 -164h-104z" />
    <glyph glyph-name="acute" unicode="&#xb4;" 
d="M404 727l-116 -164h-104l84 164h136z" />
    <glyph glyph-name="circumflex" unicode="&#x2c6;" 
d="M89 563l118 164h118l118 -164h-102l-75 91l-75 -91h-102z" />
    <glyph glyph-name="caron" unicode="&#x2c7;" 
d="M443 727l-118 -164h-118l-118 164h102l75 -91l75 91h102z" />
    <glyph glyph-name="commaaccent" unicode="&#xf6c3;" 
d="M224 -54h132l-80 -218h-102z" />
    <glyph glyph-name="commaaccent.alt" 
d="M175 556l80 218h102l-50 -218h-132z" />
    <glyph glyph-name="tilde" unicode="&#x2dc;" 
d="M258 596c-27 13 -46 23 -69 23c-39 0 -66 -25 -87 -50l-2 1v113c20 20 50 37 89 37c26 0 53 -9 85 -24c27 -13 46 -23 69 -23c39 0 66 25 87 50l2 -1v-113c-20 -20 -50 -37 -89 -37c-26 0 -53 9 -85 24z" />
    <glyph glyph-name="dieresis" unicode="&#xa8;" 
d="M154 571c-42 0 -77 35 -77 77s35 77 77 77s77 -35 77 -77s-35 -77 -77 -77zM378 571c-42 0 -77 35 -77 77s35 77 77 77s77 -35 77 -77s-35 -77 -77 -77z" />
    <glyph glyph-name="macron" unicode="&#xaf;" 
d="M113 595v100h306v-100h-306z" />
    <glyph glyph-name="breve" unicode="&#x2d8;" 
d="M266 563c-102 0 -160 66 -163 164h84c3 -47 24 -87 79 -87s76 40 79 87h84c-3 -98 -61 -164 -163 -164z" />
    <glyph glyph-name="ring" unicode="&#x2da;" 
d="M266 541c-75 0 -130 54 -130 124s55 124 130 124s130 -54 130 -124s-55 -124 -130 -124zM266 605c36 0 58 27 58 60s-22 60 -58 60s-58 -27 -58 -60s22 -60 58 -60z" />
    <glyph glyph-name="hungarumlaut" unicode="&#x2dd;" 
d="M274 563l74 164h110l-97 -164h-87zM110 563l74 164h110l-97 -164h-87z" />
    <glyph glyph-name="dotaccent" unicode="&#x2d9;" 
d="M266 571c-42 0 -77 35 -77 77s35 77 77 77s77 -35 77 -77s-35 -77 -77 -77z" />
    <glyph glyph-name="cedilla" unicode="&#xb8;" 
d="M214 -87l41 128l56 -13l-21 -65c55 -11 88 -43 88 -91c0 -56 -45 -93 -113 -93c-34 0 -65 9 -87 19l21 66c21 -11 45 -19 65 -19s39 8 39 26c0 33 -59 40 -89 42z" />
    <glyph glyph-name="ogonek" unicode="&#x2db;" 
d="M157 -124c0 45 27 104 105 150l112 -18c-71 -40 -94 -79 -94 -108c0 -23 15 -39 45 -39c12 0 32 3 49 8v-88c-19 -6 -49 -12 -79 -12c-84 0 -138 44 -138 107z" />
    <glyph glyph-name="comma" unicode="," horiz-adv-x="306" 
d="M42 -147l56 300h139l-90 -300h-105z" />
    <glyph glyph-name="semicolon" unicode=";" horiz-adv-x="306" 
d="M42 -147l56 300h139l-90 -300h-105zM153 331c-47 0 -86 39 -86 86s39 86 86 86s86 -39 86 -86s-39 -86 -86 -86z" />
    <glyph glyph-name="colon" unicode=":" horiz-adv-x="306" 
d="M153 331c-47 0 -86 39 -86 86s39 86 86 86s86 -39 86 -86s-39 -86 -86 -86zM67 75c0 47 39 86 86 86s86 -39 86 -86s-39 -86 -86 -86s-86 39 -86 86z" />
    <glyph glyph-name="period" unicode="." horiz-adv-x="306" 
d="M61 79c0 50 42 90 92 90s92 -40 92 -90s-42 -90 -92 -90s-92 40 -92 90z" />
    <glyph glyph-name="ellipsis" unicode="&#x2026;" horiz-adv-x="864" 
d="M61 79c0 50 42 90 92 90s92 -40 92 -90s-42 -90 -92 -90s-92 40 -92 90zM340 79c0 50 42 90 92 90s92 -40 92 -90s-42 -90 -92 -90s-92 40 -92 90zM619 79c0 50 42 90 92 90s92 -40 92 -90s-42 -90 -92 -90s-92 40 -92 90z" />
    <glyph glyph-name="hyphen" unicode="-" horiz-adv-x="339" 
d="M46 215v124h247v-124h-247z" />
    <glyph glyph-name="hyphen.cap" horiz-adv-x="339" 
d="M46 299v124h247v-124h-247z" />
    <glyph glyph-name="exclam" unicode="!" horiz-adv-x="292" 
d="M58 76c0 48 40 87 88 87s88 -39 88 -87s-40 -87 -88 -87s-88 39 -88 87zM95 241l-37 483h176l-37 -483h-102z" />
    <glyph glyph-name="exclamdown" unicode="&#xa1;" horiz-adv-x="292" 
d="M197 251l37 -483h-176l37 483h102zM234 416c0 -48 -40 -87 -88 -87s-88 39 -88 87s40 87 88 87s88 -39 88 -87z" />
    <glyph glyph-name="exclamdown.cap" horiz-adv-x="292" 
d="M197 483l37 -483h-176l37 483h102zM234 648c0 -48 -40 -87 -88 -87s-88 39 -88 87s40 87 88 87s88 -39 88 -87z" />
    <glyph glyph-name="questiondown" unicode="&#xbf;" horiz-adv-x="514" 
d="M387 269l24 -178c-119 0 -203 -26 -203 -102c0 -49 36 -88 98 -88c40 0 92 18 138 48l19 -142c-42 -29 -108 -50 -170 -50c-140 0 -245 95 -245 220c0 121 100 204 198 217v75h141zM391 416c0 -48 -40 -87 -88 -87s-88 39 -88 87s40 87 88 87s88 -39 88 -87z" />
    <glyph glyph-name="questiondown.cap" horiz-adv-x="514" 
d="M387 501l24 -178c-119 0 -203 -26 -203 -102c0 -49 36 -88 98 -88c40 0 92 18 138 48l19 -142c-42 -29 -108 -50 -170 -50c-140 0 -245 95 -245 220c0 121 100 204 198 217v75h141zM391 648c0 -48 -40 -87 -88 -87s-88 39 -88 87s40 87 88 87s88 -39 88 -87z" />
    <glyph glyph-name="quoteleft" unicode="&#x2018;" horiz-adv-x="266" 
d="M34 460l93 282h95l-58 -282h-130z" />
    <glyph glyph-name="quoteright" unicode="&#x2019;" horiz-adv-x="266" 
d="M44 460l58 282h130l-93 -282h-95z" />
    <glyph glyph-name="quotedblright" unicode="&#x201d;" horiz-adv-x="453" 
d="M44 460l58 282h130l-93 -282h-95zM231 460l58 282h130l-93 -282h-95z" />
    <glyph glyph-name="guilsinglleft" unicode="&#x2039;" horiz-adv-x="346" 
d="M185 27l-163 219l163 219h122l-162 -219l162 -219h-122z" />
    <glyph glyph-name="guilsinglleft.cap" horiz-adv-x="346" 
d="M185 143l-163 219l163 219h122l-162 -219l162 -219h-122z" />
    <glyph glyph-name="guilsinglright" unicode="&#x203a;" horiz-adv-x="346" 
d="M39 27l162 219l-162 219h122l163 -219l-163 -219h-122z" />
    <glyph glyph-name="guilsinglright.cap" horiz-adv-x="346" 
d="M39 143l162 219l-162 219h122l163 -219l-163 -219h-122z" />
    <glyph glyph-name="guillemotleft" unicode="&#xab;" horiz-adv-x="577" 
d="M185 27l-163 219l163 219h122l-162 -219l162 -219h-122zM416 27l-163 219l163 219h122l-162 -219l162 -219h-122z" />
    <glyph glyph-name="guillemotleft.cap" horiz-adv-x="577" 
d="M185 143l-163 219l163 219h122l-162 -219l162 -219h-122zM416 143l-163 219l163 219h122l-162 -219l162 -219h-122z" />
    <glyph glyph-name="guillemotright" unicode="&#xbb;" horiz-adv-x="577" 
d="M39 27l162 219l-162 219h122l163 -219l-163 -219h-122zM270 27l162 219l-162 219h122l163 -219l-163 -219h-122z" />
    <glyph glyph-name="guillemotright.cap" horiz-adv-x="577" 
d="M39 143l162 219l-162 219h122l163 -219l-163 -219h-122zM270 143l162 219l-162 219h122l163 -219l-163 -219h-122z" />
    <glyph glyph-name="slash" unicode="/" horiz-adv-x="466" 
d="M6 -38l338 800h116l-338 -800h-116z" />
    <glyph glyph-name="bar" unicode="|" horiz-adv-x="321" 
d="M102 -220v1020h117v-1020h-117z" />
    <glyph glyph-name="endash" unicode="&#x2013;" horiz-adv-x="488" 
d="M47 222v111h394v-111h-394z" />
    <glyph glyph-name="endash.cap" horiz-adv-x="488" 
d="M47 306v111h394v-111h-394z" />
    <glyph glyph-name="emdash" unicode="&#x2014;" horiz-adv-x="782" 
d="M32 231v93h718v-93h-718z" />
    <glyph glyph-name="emdash.cap" horiz-adv-x="782" 
d="M32 315v93h718v-93h-718z" />
    <glyph glyph-name="bullet" unicode="&#x2022;" horiz-adv-x="376" 
d="M60 297c0 71 57 128 128 128s128 -57 128 -128s-57 -128 -128 -128s-128 57 -128 128z" />
    <glyph glyph-name="parenleft" unicode="(" horiz-adv-x="373" 
d="M68 265c0 214 65 375 147 478h141c-84 -109 -151 -276 -151 -478s67 -369 151 -478h-141c-82 103 -147 264 -147 478z" />
    <glyph glyph-name="parenright" unicode=")" horiz-adv-x="373" 
d="M17 -213c84 109 151 276 151 478s-67 369 -151 478h141c82 -103 147 -264 147 -478s-65 -375 -147 -478h-141z" />
    <glyph glyph-name="parenleft.cap" horiz-adv-x="373" 
d="M68 362c0 214 65 375 147 478h141c-84 -109 -151 -276 -151 -478s67 -369 151 -478h-141c-82 103 -147 264 -147 478z" />
    <glyph glyph-name="parenright.cap" horiz-adv-x="373" 
d="M17 -116c84 109 151 276 151 478s-67 369 -151 478h141c82 -103 147 -264 147 -478s-65 -375 -147 -478h-141z" />
    <glyph glyph-name="bracketleft" unicode="[" horiz-adv-x="362" 
d="M215 -104h105v-109h-245v956h245v-109h-105v-738z" />
    <glyph glyph-name="bracketright" unicode="]" horiz-adv-x="362" 
d="M42 -104h105v738h-105v109h245v-956h-245v109z" />
    <glyph glyph-name="bracketleft.cap" horiz-adv-x="362" 
d="M215 -7h105v-109h-245v956h245v-109h-105v-738z" />
    <glyph glyph-name="bracketright.cap" horiz-adv-x="362" 
d="M42 -7h105v738h-105v109h245v-956h-245v109z" />
    <glyph glyph-name="braceleft" unicode="{" horiz-adv-x="374" 
d="M114 -61v200c0 51 -14 71 -66 71h-29v110h29c52 0 66 20 66 71v200c0 96 55 163 173 163c25 0 53 -3 68 -6v-107c-11 3 -28 4 -38 4c-44 0 -63 -19 -63 -72v-176c0 -74 -17 -114 -69 -131v-2c52 -17 69 -57 69 -131v-176c0 -53 19 -72 63 -72c10 0 27 1 38 4v-107
c-15 -3 -43 -6 -68 -6c-118 0 -173 67 -173 163z" />
    <glyph glyph-name="braceright" unicode="}" horiz-adv-x="374" 
d="M120 -43v176c0 74 17 114 69 131v2c-52 17 -69 57 -69 131v176c0 53 -19 72 -63 72c-10 0 -27 -1 -38 -4v107c15 3 43 6 68 6c118 0 173 -67 173 -163v-200c0 -51 14 -71 66 -71h29v-110h-29c-52 0 -66 -20 -66 -71v-200c0 -96 -55 -163 -173 -163c-25 0 -53 3 -68 6v107
c11 -3 28 -4 38 -4c44 0 63 19 63 72z" />
    <glyph glyph-name="braceleft.cap" horiz-adv-x="374" 
d="M114 36v200c0 51 -14 71 -66 71h-29v110h29c52 0 66 20 66 71v200c0 96 55 163 173 163c25 0 53 -3 68 -6v-107c-11 3 -28 4 -38 4c-44 0 -63 -19 -63 -72v-176c0 -74 -17 -114 -69 -131v-2c52 -17 69 -57 69 -131v-176c0 -53 19 -72 63 -72c10 0 27 1 38 4v-107
c-15 -3 -43 -6 -68 -6c-118 0 -173 67 -173 163z" />
    <glyph glyph-name="braceright.cap" horiz-adv-x="374" 
d="M120 54v176c0 74 17 114 69 131v2c-52 17 -69 57 -69 131v176c0 53 -19 72 -63 72c-10 0 -27 -1 -38 -4v107c15 3 43 6 68 6c118 0 173 -67 173 -163v-200c0 -51 14 -71 66 -71h29v-110h-29c-52 0 -66 -20 -66 -71v-200c0 -96 -55 -163 -173 -163c-25 0 -53 3 -68 6v107
c11 -3 28 -4 38 -4c44 0 63 19 63 72z" />
    <glyph glyph-name="asterisk" unicode="*" horiz-adv-x="450" 
d="M196 584l-18 142h93l-18 -142h-57zM282 521l-17 55l131 60l28 -88zM167 521l-142 27l28 88l131 -60zM301 348l-69 126l47 33l97 -104zM148 348l-75 55l97 104l47 -33z" />
    <glyph glyph-name="dagger" unicode="&#x2020;" horiz-adv-x="609" 
d="M234 -220v599h-176v126h176v219h141v-219h176v-126h-176v-599h-141z" />
    <glyph glyph-name="daggerdbl" unicode="&#x2021;" horiz-adv-x="609" 
d="M58 -1v126h176v254h-176v126h176v219h141v-219h176v-126h-176v-254h176v-126h-176v-219h-141v219h-176z" />
    <glyph glyph-name="section" unicode="&#xa7;" horiz-adv-x="583" 
d="M114 11c41 -21 102 -43 149 -43c45 0 77 20 77 55c0 50 -64 66 -143 103c-77 36 -147 82 -147 174c0 68 38 115 93 140v2c-27 26 -46 64 -46 111c0 111 98 180 217 180c54 0 109 -14 145 -33v-129c-41 22 -92 39 -133 39c-44 0 -77 -20 -77 -55c0 -48 61 -65 136 -98
c83 -37 154 -82 154 -178c0 -68 -37 -117 -91 -143v-2c28 -28 44 -63 44 -108c0 -113 -100 -181 -228 -181c-62 0 -111 16 -150 34v132zM392 271c0 48 -59 65 -132 97c-41 -12 -63 -31 -63 -60c0 -51 66 -70 134 -100c36 11 61 31 61 63z" />
    <glyph glyph-name="paragraph" unicode="&#xb6;" horiz-adv-x="609" 
d="M225 -220v582c-101 0 -183 81 -183 181s82 181 183 181h306v-944h-116v843h-74v-843h-116z" />
    <glyph glyph-name="asciicircum" unicode="^" horiz-adv-x="559" 
d="M51 362l177 373h103l177 -373h-118l-110 220h-1l-110 -220h-118z" />
    <glyph glyph-name="asciitilde" unicode="~" horiz-adv-x="556" 
d="M382 272c-41 0 -74 14 -115 33c-33 16 -62 31 -95 31c-45 0 -74 -29 -94 -59l-2 1v137c23 22 56 37 98 37c41 0 74 -14 115 -33c34 -16 62 -31 95 -31c45 0 75 29 94 59l2 -1v-137c-22 -22 -56 -37 -98 -37z" />
    <glyph glyph-name="brokenbar" unicode="&#xa6;" horiz-adv-x="321" 
d="M102 408v392h117v-392h-117zM102 172h117v-392h-117v392z" />
    <glyph glyph-name="backslash" unicode="\" horiz-adv-x="466" 
d="M344 -38l-338 800h116l338 -800h-116z" />
    <glyph glyph-name="underscore" unicode="_" horiz-adv-x="504" 
d="M0 -83h504v-66h-504v66z" />
    <glyph glyph-name="quotesingle" unicode="'" horiz-adv-x="188" 
d="M51 460l-21 282h128l-21 -282h-86z" />
    <glyph glyph-name="quotedbl" unicode="&#x22;" horiz-adv-x="374" 
d="M51 460l-21 282h128l-21 -282h-86zM237 460l-21 282h128l-21 -282h-86z" />
    <glyph glyph-name="copyright" unicode="&#xa9;" horiz-adv-x="798" 
d="M24 362c0 211 161 373 375 373s375 -162 375 -373s-161 -373 -375 -373s-375 162 -375 373zM88 362c0 -176 126 -313 311 -313s311 137 311 313s-126 313 -311 313s-311 -137 -311 -313zM199 366c0 120 93 205 215 205c42 0 87 -10 121 -31v-97c-33 22 -73 38 -113 38
c-70 0 -119 -48 -119 -114c0 -64 47 -113 120 -113c39 0 83 14 117 39v-97c-37 -24 -88 -33 -129 -33c-123 0 -212 87 -212 203z" />
    <glyph glyph-name="Euro" unicode="&#x20ac;" horiz-adv-x="611" 
d="M14 230v102h65c-1 10 -1 20 -1 30c0 11 0 22 1 33h-65v102h84c46 144 168 238 341 238c51 0 91 -8 127 -22v-146c-39 14 -77 24 -121 24c-82 0 -141 -35 -175 -94h158v-102h-188c-1 -11 -1 -21 -1 -32s0 -21 1 -31h188v-102h-159c34 -60 94 -97 183 -97c43 0 83 9 124 26
v-145c-38 -18 -90 -25 -138 -25c-177 0 -297 97 -341 241h-83z" />
    <glyph glyph-name="dollar" unicode="$" horiz-adv-x="597" 
d="M243 -76v127c-52 7 -108 21 -153 44v148c72 -46 157 -67 211 -67c49 0 82 17 82 58c0 52 -62 54 -144 78c-100 29 -170 74 -170 176c0 100 71 167 174 185v127h117v-126c51 -7 105 -22 149 -44v-145c-71 44 -153 64 -206 64c-46 0 -77 -15 -77 -52c0 -49 60 -49 140 -73
c102 -30 174 -76 174 -180c0 -107 -73 -174 -180 -192v-128h-117z" />
    <glyph glyph-name="sterling" unicode="&#xa3;" horiz-adv-x="590" 
d="M55 295v116h43c-10 32 -18 66 -18 102c0 134 109 222 256 222c78 0 143 -25 182 -51v-154c-54 39 -118 62 -170 62c-64 0 -109 -34 -109 -92c0 -25 8 -56 18 -89h165v-116h-136c2 -12 3 -23 3 -34c0 -55 -24 -95 -56 -120v-2h311v-139h-489v116c61 30 84 80 84 134
c0 15 -2 30 -5 45h-79z" />
    <glyph glyph-name="yen" unicode="&#xa5;" horiz-adv-x="694" 
d="M93 390v102h81l-163 232h184l67 -99c28 -41 59 -89 87 -133h2c28 44 57 89 87 134l66 98h178l-163 -232h83v-102h-154l-21 -30v-52h175v-103h-175v-205h-159v205h-175v103h175v51l-22 31h-153z" />
    <glyph glyph-name="numbersign" unicode="#" horiz-adv-x="634" 
d="M57 0l59 206h-107l27 93h107l36 126h-107l27 93h107l59 206h100l-59 -206h112l59 206h100l-59 -206h107l-27 -93h-107l-36 -126h107l-27 -93h-107l-59 -206h-100l59 206h-112l-59 -206h-100zM243 299h112l36 126h-112z" />
    <glyph glyph-name="fraction" unicode="&#x2044;" horiz-adv-x="399" 
d="M27 -13h-128l473 737h128z" />
    <glyph glyph-name="plus" unicode="+" horiz-adv-x="600" 
d="M241 116v191h-187v110h187v191h118v-191h187v-110h-187v-191h-118z" />
    <glyph glyph-name="minus" unicode="&#x2212;" horiz-adv-x="600" 
d="M54 307v110h492v-110h-492z" />
    <glyph glyph-name="plusminus" unicode="&#xb1;" horiz-adv-x="600" 
d="M241 238v161h-170v110h170v161h118v-161h170v-110h-170v-161h-118zM71 64v109h458v-109h-458z" />
    <glyph glyph-name="multiply" unicode="&#xd7;" horiz-adv-x="600" 
d="M161 143l-81 80l140 140l-140 139l81 80l139 -139l139 139l81 -80l-140 -140l140 -139l-81 -80l-139 139z" />
    <glyph glyph-name="divide" unicode="&#xf7;" horiz-adv-x="600" 
d="M220 567c0 43 35 77 78 77s78 -34 78 -77s-35 -77 -78 -77s-78 34 -78 77zM54 307v110h492v-110h-492zM222 157c0 43 35 77 78 77s78 -34 78 -77s-35 -77 -78 -77s-78 34 -78 77z" />
    <glyph glyph-name="equal" unicode="=" horiz-adv-x="600" 
d="M54 417v109h492v-109h-492zM54 198v109h492v-109h-492z" />
    <glyph glyph-name="notequal" unicode="&#x2260;" horiz-adv-x="600" 
d="M54 417v109h328l97 129l52 -39l-68 -90h83v-109h-164l-83 -110h247v-109h-328l-97 -129l-52 39l68 90h-83v109h164l83 110h-247z" />
    <glyph glyph-name="approxequal" unicode="&#x2248;" horiz-adv-x="600" 
d="M86 381l-28 86c28 49 79 79 129 79c82 0 154 -53 229 -53c39 0 74 19 98 56l28 -86c-28 -49 -79 -79 -129 -79c-82 0 -154 53 -229 53c-39 0 -74 -19 -98 -56zM86 175l-28 86c28 49 79 79 129 79c82 0 154 -53 229 -53c39 0 74 19 98 56l28 -86c-28 -49 -79 -79 -129 -79
c-82 0 -154 53 -229 53c-39 0 -74 -19 -98 -56z" />
    <glyph glyph-name="less" unicode="&#x3c;" horiz-adv-x="716" 
d="M82 322v80l552 212v-116l-351 -135v-2l351 -135v-116z" />
    <glyph glyph-name="greater" unicode="&#x3e;" horiz-adv-x="716" 
d="M82 110v116l351 135v2l-351 135v116l552 -212v-80z" />
    <glyph glyph-name="logicalnot" unicode="&#xac;" horiz-adv-x="600" 
d="M54 307v110h492v-301h-117v191h-375z" />
    <glyph glyph-name="uni00AD" unicode="&#xad;" horiz-adv-x="339" 
d="M46 215v124h247v-124h-247z" />
    <glyph glyph-name="Delta" unicode="&#x2206;" horiz-adv-x="724" 
d="M34 0v98l249 626h159l249 -626v-98h-657zM208 139h306l-93 245c-20 54 -40 108 -59 161h-2c-19 -54 -39 -107 -59 -161z" />
    <glyph glyph-name="Omega" unicode="&#x2126;" horiz-adv-x="775" 
d="M387 592c-125 0 -192 -90 -192 -209c0 -106 53 -205 138 -280v-103h-312v139h120l1 2c-66 69 -107 164 -107 263c0 185 143 331 352 331s352 -146 352 -331c0 -99 -41 -194 -107 -263l1 -2h120v-139h-312v103c85 75 138 174 138 280c0 119 -67 209 -192 209z" />
    <glyph glyph-name="pi" unicode="&#x3c0;" horiz-adv-x="661" 
d="M105 0c26 117 32 236 33 357c-46 -7 -85 -21 -115 -37v126c49 28 136 46 226 46h402l-22 -126h-75v-366h-152v366h-112c-1 -124 -7 -248 -33 -366h-152z" />
    <glyph glyph-name="degree" unicode="&#xb0;" horiz-adv-x="353" 
d="M176 441c-87 0 -151 65 -151 147s64 147 151 147s151 -65 151 -147s-64 -147 -151 -147zM176 503c49 0 86 39 86 85s-37 85 -86 85s-86 -39 -86 -85s37 -85 86 -85z" />
    <glyph glyph-name="infinity" unicode="&#x221e;" horiz-adv-x="753" 
d="M209 63c-108 0 -181 83 -181 190c0 100 64 189 180 189c83 0 135 -49 170 -97h2c41 60 92 97 163 97c108 0 181 -83 181 -190c0 -100 -64 -189 -180 -189c-83 0 -135 49 -170 97h-2c-41 -60 -92 -97 -163 -97zM435 257c24 -47 53 -86 104 -86c49 0 73 35 73 81
s-24 82 -73 82c-48 0 -79 -36 -104 -77zM213 171c48 0 79 36 104 77c-24 47 -53 86 -104 86c-49 0 -73 -35 -73 -81s24 -82 73 -82z" />
    <glyph glyph-name="partialdiff" unicode="&#x2202;" horiz-adv-x="580" 
d="M19 225c0 135 97 244 238 244c57 0 107 -18 144 -42l1 1c-9 102 -42 224 -149 224c-37 0 -91 -15 -136 -42v127c42 27 97 46 164 46c197 0 275 -176 275 -393c0 -245 -99 -401 -291 -401c-161 0 -246 109 -246 236zM172 227c0 -63 40 -109 101 -109c78 0 115 75 127 177
c-29 26 -73 49 -119 49c-72 0 -109 -56 -109 -117z" />
    <glyph glyph-name="radical" unicode="&#x221a;" horiz-adv-x="681" 
d="M355 108h3c18 57 40 122 61 181l208 589h117l-358 -994h-55l-203 492l-94 -37l-36 90l199 80l89 -221c24 -59 47 -119 69 -180z" />
    <glyph glyph-name="summation" unicode="&#x2211;" horiz-adv-x="622" 
d="M49 -13l203 341l-193 293v103h498v-139h-303l165 -252l-185 -310h338v-139h-523v103z" />
    <glyph glyph-name="product" unicode="&#x220f;" horiz-adv-x="791" 
d="M122 -116v701h-100v139h747v-139h-100v-701h-158v701h-231v-701h-158z" />
    <glyph glyph-name="lozenge" unicode="&#x25ca;" horiz-adv-x="551" 
d="M225 -19l-185 378l185 379h101l185 -378l-185 -379h-101zM275 100h2l123 260l-124 259h-2l-123 -260z" />
    <glyph glyph-name="percent" unicode="%" horiz-adv-x="931" 
d="M223 361c-111 0 -180 80 -180 187s69 187 180 187s180 -80 180 -187s-69 -187 -180 -187zM178 0l473 724h102l-473 -724h-102zM223 454c47 0 77 42 77 94s-30 94 -77 94s-77 -42 -77 -94s30 -94 77 -94zM528 176c0 107 69 187 180 187s180 -80 180 -187
s-69 -187 -180 -187s-180 80 -180 187zM631 176c0 -52 30 -94 77 -94s77 42 77 94s-30 94 -77 94s-77 -42 -77 -94z" />
    <glyph glyph-name="o" unicode="o" horiz-adv-x="612" 
d="M184 246c0 -70 53 -126 122 -126s122 56 122 126s-53 126 -122 126s-122 -56 -122 -126zM32 246c0 145 117 257 274 257s274 -112 274 -257s-117 -257 -274 -257s-274 112 -274 257z" />
    <glyph glyph-name="uni021A" unicode="&#x21a;" horiz-adv-x="657" 
d="M249 0v585h-234v139h627v-139h-234v-585h-159zM286 -54h132l-80 -218h-102z" />
    <glyph glyph-name="B" unicode="B" horiz-adv-x="639" 
d="M66 0v724h211c209 0 302 -64 302 -184c0 -74 -43 -120 -109 -144v-2c93 -27 138 -89 138 -175c0 -136 -105 -219 -327 -219h-215zM225 424h84c66 0 111 25 111 82s-35 82 -146 82h-49v-164zM225 136h59c132 0 165 26 165 90c0 60 -46 89 -129 89h-95v-179z" />
    <glyph glyph-name="Agrave" unicode="&#xc0;" horiz-adv-x="748" 
d="M3 0l294 724h154l294 -724h-170l-58 152h-292l-59 -152h-163zM303 354l-29 -77h195l-30 81c-21 57 -47 129 -66 184h-2c-19 -55 -45 -127 -68 -188zM352 795l-116 164h136l84 -164h-104z" />
    <glyph glyph-name="Aacute" unicode="&#xc1;" horiz-adv-x="748" 
d="M3 0l294 724h154l294 -724h-170l-58 152h-292l-59 -152h-163zM303 354l-29 -77h195l-30 81c-21 57 -47 129 -66 184h-2c-19 -55 -45 -127 -68 -188zM512 959l-116 -164h-104l84 164h136z" />
    <glyph glyph-name="Acircumflex" unicode="&#xc2;" horiz-adv-x="748" 
d="M3 0l294 724h154l294 -724h-170l-58 152h-292l-59 -152h-163zM303 354l-29 -77h195l-30 81c-21 57 -47 129 -66 184h-2c-19 -55 -45 -127 -68 -188zM197 795l118 164h118l118 -164h-102l-75 91l-75 -91h-102z" />
    <glyph glyph-name="Atilde" unicode="&#xc3;" horiz-adv-x="748" 
d="M3 0l294 724h154l294 -724h-170l-58 152h-292l-59 -152h-163zM303 354l-29 -77h195l-30 81c-21 57 -47 129 -66 184h-2c-19 -55 -45 -127 -68 -188zM366 828c-27 13 -46 23 -69 23c-39 0 -66 -25 -87 -50l-2 1v113c20 20 50 37 89 37c26 0 53 -9 85 -24
c27 -13 46 -23 69 -23c39 0 66 25 87 50l2 -1v-113c-20 -20 -50 -37 -89 -37c-26 0 -53 9 -85 24z" />
    <glyph glyph-name="Adieresis" unicode="&#xc4;" horiz-adv-x="748" 
d="M3 0l294 724h154l294 -724h-170l-58 152h-292l-59 -152h-163zM303 354l-29 -77h195l-30 81c-21 57 -47 129 -66 184h-2c-19 -55 -45 -127 -68 -188zM262 803c-42 0 -77 35 -77 77s35 77 77 77s77 -35 77 -77s-35 -77 -77 -77zM486 803c-42 0 -77 35 -77 77s35 77 77 77
s77 -35 77 -77s-35 -77 -77 -77z" />
    <glyph glyph-name="Amacron" unicode="&#x100;" horiz-adv-x="748" 
d="M3 0l294 724h154l294 -724h-170l-58 152h-292l-59 -152h-163zM303 354l-29 -77h195l-30 81c-21 57 -47 129 -66 184h-2c-19 -55 -45 -127 -68 -188zM221 827v100h306v-100h-306z" />
    <glyph glyph-name="Abreve" unicode="&#x102;" horiz-adv-x="748" 
d="M3 0l294 724h154l294 -724h-170l-58 152h-292l-59 -152h-163zM303 354l-29 -77h195l-30 81c-21 57 -47 129 -66 184h-2c-19 -55 -45 -127 -68 -188zM374 795c-102 0 -160 66 -163 164h84c3 -47 24 -87 79 -87s76 40 79 87h84c-3 -98 -61 -164 -163 -164z" />
    <glyph glyph-name="Aring" unicode="&#xc5;" horiz-adv-x="748" 
d="M3 0l294 724h154l294 -724h-170l-58 152h-292l-59 -152h-163zM303 354l-29 -77h195l-30 81c-21 57 -47 129 -66 184h-2c-19 -55 -45 -127 -68 -188zM374 773c-75 0 -130 54 -130 124s55 124 130 124s130 -54 130 -124s-55 -124 -130 -124zM374 837c36 0 58 27 58 60
s-22 60 -58 60s-58 -27 -58 -60s22 -60 58 -60z" />
    <glyph glyph-name="Aogonek" unicode="&#x104;" horiz-adv-x="748" 
d="M3 0l294 724h154l294 -724c-88 -26 -114 -72 -114 -99c0 -24 15 -40 45 -40c12 0 32 3 49 8v-88c-19 -6 -49 -12 -78 -12c-85 0 -139 43 -139 107c0 42 22 89 67 124l-58 152h-292l-59 -152h-163zM303 354l-29 -77h195l-30 81c-21 57 -47 129 -66 184h-2
c-19 -55 -45 -127 -68 -188z" />
    <glyph glyph-name="Cacute" unicode="&#x106;" horiz-adv-x="681" 
d="M35 361c0 210 161 374 394 374c73 0 144 -17 201 -45v-161c-53 36 -126 63 -200 63c-140 0 -236 -98 -236 -229c0 -129 93 -231 242 -231c75 0 145 26 205 67v-162c-62 -33 -140 -48 -212 -48c-233 0 -394 161 -394 372zM578 959l-116 -164h-104l84 164h136z" />
    <glyph glyph-name="Ccircumflex" unicode="&#x108;" horiz-adv-x="681" 
d="M35 361c0 210 161 374 394 374c73 0 144 -17 201 -45v-161c-53 36 -126 63 -200 63c-140 0 -236 -98 -236 -229c0 -129 93 -231 242 -231c75 0 145 26 205 67v-162c-62 -33 -140 -48 -212 -48c-233 0 -394 161 -394 372zM213 795l118 164h118l118 -164h-102l-75 91
l-75 -91h-102z" />
    <glyph glyph-name="Ccaron" unicode="&#x10c;" horiz-adv-x="681" 
d="M35 361c0 210 161 374 394 374c73 0 144 -17 201 -45v-161c-53 36 -126 63 -200 63c-140 0 -236 -98 -236 -229c0 -129 93 -231 242 -231c75 0 145 26 205 67v-162c-62 -33 -140 -48 -212 -48c-233 0 -394 161 -394 372zM567 959l-118 -164h-118l-118 164h102l75 -91
l75 91h102z" />
    <glyph glyph-name="Cdotaccent" unicode="&#x10a;" horiz-adv-x="681" 
d="M35 361c0 210 161 374 394 374c73 0 144 -17 201 -45v-161c-53 36 -126 63 -200 63c-140 0 -236 -98 -236 -229c0 -129 93 -231 242 -231c75 0 145 26 205 67v-162c-62 -33 -140 -48 -212 -48c-233 0 -394 161 -394 372zM390 803c-42 0 -77 35 -77 77s35 77 77 77
s77 -35 77 -77s-35 -77 -77 -77z" />
    <glyph glyph-name="Ccedilla" unicode="&#xc7;" horiz-adv-x="681" 
d="M347 -87l25 79c-202 24 -337 175 -337 369c0 210 161 374 394 374c73 0 144 -17 201 -45v-161c-53 36 -126 63 -200 63c-140 0 -236 -98 -236 -229c0 -129 93 -231 242 -231c75 0 145 26 205 67v-162c-62 -33 -138 -47 -210 -48l-8 -26c55 -11 88 -43 88 -91
c0 -56 -45 -93 -113 -93c-34 0 -65 9 -87 19l21 66c21 -11 45 -19 65 -19s39 8 39 26c0 33 -59 40 -89 42z" />
    <glyph glyph-name="Dcaron" unicode="&#x10e;" horiz-adv-x="743" 
d="M66 0v724h203c288 0 443 -129 443 -361c0 -222 -140 -363 -450 -363h-196zM225 139h44c200 0 284 81 284 224c0 76 -30 140 -84 178c-51 36 -120 44 -201 44h-43v-446zM518 959l-118 -164h-118l-118 164h102l75 -91l75 91h102z" />
    <glyph glyph-name="Dcroat" unicode="&#x110;" horiz-adv-x="758" 
d="M2 313v111h79v300h203c129 0 229 -21 304 -73c89 -62 139 -164 139 -288c0 -114 -43 -211 -120 -274c-74 -60 -178 -89 -330 -89h-196v313h-79zM240 139h44c103 0 169 18 214 57c43 37 70 95 70 167c0 76 -30 140 -84 178c-51 36 -120 44 -201 44h-43v-161h131v-111h-131
v-174z" />
    <glyph glyph-name="Egrave" unicode="&#xc8;" horiz-adv-x="561" 
d="M66 0v724h447v-139h-288v-142h248v-132h-248v-172h299v-139h-458zM272 795l-116 164h136l84 -164h-104z" />
    <glyph glyph-name="Eacute" unicode="&#xc9;" horiz-adv-x="561" 
d="M66 0v724h447v-139h-288v-142h248v-132h-248v-172h299v-139h-458zM432 959l-116 -164h-104l84 164h136z" />
    <glyph glyph-name="Ecircumflex" unicode="&#xca;" horiz-adv-x="561" 
d="M66 0v724h447v-139h-288v-142h248v-132h-248v-172h299v-139h-458zM117 795l118 164h118l118 -164h-102l-75 91l-75 -91h-102z" />
    <glyph glyph-name="Ecaron" unicode="&#x11a;" horiz-adv-x="561" 
d="M66 0v724h447v-139h-288v-142h248v-132h-248v-172h299v-139h-458zM471 959l-118 -164h-118l-118 164h102l75 -91l75 91h102z" />
    <glyph glyph-name="Edieresis" unicode="&#xcb;" horiz-adv-x="561" 
d="M66 0v724h447v-139h-288v-142h248v-132h-248v-172h299v-139h-458zM182 803c-42 0 -77 35 -77 77s35 77 77 77s77 -35 77 -77s-35 -77 -77 -77zM406 803c-42 0 -77 35 -77 77s35 77 77 77s77 -35 77 -77s-35 -77 -77 -77z" />
    <glyph glyph-name="Emacron" unicode="&#x112;" horiz-adv-x="561" 
d="M66 0v724h447v-139h-288v-142h248v-132h-248v-172h299v-139h-458zM141 827v100h306v-100h-306z" />
    <glyph glyph-name="Ebreve" unicode="&#x114;" horiz-adv-x="561" 
d="M66 0v724h447v-139h-288v-142h248v-132h-248v-172h299v-139h-458zM294 795c-102 0 -160 66 -163 164h84c3 -47 24 -87 79 -87s76 40 79 87h84c-3 -98 -61 -164 -163 -164z" />
    <glyph glyph-name="Edotaccent" unicode="&#x116;" horiz-adv-x="561" 
d="M66 0v724h447v-139h-288v-142h248v-132h-248v-172h299v-139h-458zM294 803c-42 0 -77 35 -77 77s35 77 77 77s77 -35 77 -77s-35 -77 -77 -77z" />
    <glyph glyph-name="Eogonek" unicode="&#x118;" horiz-adv-x="561" 
d="M66 0v724h447v-139h-288v-142h248v-132h-248v-172h299v-139c-70 -29 -94 -71 -94 -100c0 -23 15 -39 45 -39c12 0 32 3 49 8v-88c-19 -6 -49 -12 -79 -12c-84 0 -138 44 -138 107c0 37 18 83 65 122l-1 2h-305z" />
    <glyph glyph-name="Gcircumflex" unicode="&#x11c;" horiz-adv-x="736" 
d="M35 359c0 214 165 376 396 376c89 0 166 -24 222 -55v-160c-61 42 -140 72 -219 72c-146 0 -240 -103 -240 -232c0 -126 90 -232 239 -232c33 0 65 6 89 16v109h-126v132h280v-336c-65 -36 -156 -60 -246 -60c-232 0 -395 157 -395 370zM229 795l118 164h118l118 -164
h-102l-75 91l-75 -91h-102z" />
    <glyph glyph-name="Gbreve" unicode="&#x11e;" horiz-adv-x="736" 
d="M35 359c0 214 165 376 396 376c89 0 166 -24 222 -55v-160c-61 42 -140 72 -219 72c-146 0 -240 -103 -240 -232c0 -126 90 -232 239 -232c33 0 65 6 89 16v109h-126v132h280v-336c-65 -36 -156 -60 -246 -60c-232 0 -395 157 -395 370zM406 795c-102 0 -160 66 -163 164
h84c3 -47 24 -87 79 -87s76 40 79 87h84c-3 -98 -61 -164 -163 -164z" />
    <glyph glyph-name="Gdotaccent" unicode="&#x120;" horiz-adv-x="736" 
d="M35 359c0 214 165 376 396 376c89 0 166 -24 222 -55v-160c-61 42 -140 72 -219 72c-146 0 -240 -103 -240 -232c0 -126 90 -232 239 -232c33 0 65 6 89 16v109h-126v132h280v-336c-65 -36 -156 -60 -246 -60c-232 0 -395 157 -395 370zM406 803c-42 0 -77 35 -77 77
s35 77 77 77s77 -35 77 -77s-35 -77 -77 -77z" />
    <glyph glyph-name="Gcommaaccent" unicode="&#x122;" horiz-adv-x="736" 
d="M35 359c0 214 165 376 396 376c89 0 166 -24 222 -55v-160c-61 42 -140 72 -219 72c-146 0 -240 -103 -240 -232c0 -126 90 -232 239 -232c33 0 65 6 89 16v109h-126v132h280v-336c-65 -36 -156 -60 -246 -60c-232 0 -395 157 -395 370zM364 -54h132l-80 -218h-102z" />
    <glyph glyph-name="Hcircumflex" unicode="&#x124;" horiz-adv-x="763" 
d="M66 0v724h159v-280h313v280h159v-724h-159v305h-313v-305h-159zM204 795l118 164h118l118 -164h-102l-75 91l-75 -91h-102z" />
    <glyph glyph-name="Hbar" unicode="&#x126;" horiz-adv-x="773" 
d="M0 527v111h71v86h159v-86h313v86h159v-86h71v-111h-71v-527h-159v305h-313v-305h-159v527h-71zM230 444h313v83h-313v-83z" />
    <glyph glyph-name="Igrave" unicode="&#xcc;" horiz-adv-x="291" 
d="M66 0v724h159v-724h-159zM123 795l-116 164h136l84 -164h-104z" />
    <glyph glyph-name="Iacute" unicode="&#xcd;" horiz-adv-x="291" 
d="M66 0v724h159v-724h-159zM283 959l-116 -164h-104l84 164h136z" />
    <glyph glyph-name="Icircumflex" unicode="&#xce;" horiz-adv-x="291" 
d="M66 0v724h159v-724h-159zM-32 795l118 164h118l118 -164h-102l-75 91l-75 -91h-102z" />
    <glyph glyph-name="Itilde" unicode="&#x128;" horiz-adv-x="291" 
d="M66 0v724h159v-724h-159zM137 828c-27 13 -46 23 -69 23c-39 0 -66 -25 -87 -50l-2 1v113c20 20 50 37 89 37c26 0 53 -9 85 -24c27 -13 46 -23 69 -23c39 0 66 25 87 50l2 -1v-113c-20 -20 -50 -37 -89 -37c-26 0 -53 9 -85 24z" />
    <glyph glyph-name="Idieresis" unicode="&#xcf;" horiz-adv-x="291" 
d="M66 0v724h159v-724h-159zM33 803c-42 0 -77 35 -77 77s35 77 77 77s77 -35 77 -77s-35 -77 -77 -77zM257 803c-42 0 -77 35 -77 77s35 77 77 77s77 -35 77 -77s-35 -77 -77 -77z" />
    <glyph glyph-name="Imacron" unicode="&#x12a;" horiz-adv-x="291" 
d="M66 0v724h159v-724h-159zM-8 827v100h306v-100h-306z" />
    <glyph glyph-name="Ibreve" unicode="&#x12c;" horiz-adv-x="291" 
d="M66 0v724h159v-724h-159zM145 795c-102 0 -160 66 -163 164h84c3 -47 24 -87 79 -87s76 40 79 87h84c-3 -98 -61 -164 -163 -164z" />
    <glyph glyph-name="Idotaccent" unicode="&#x130;" horiz-adv-x="291" 
d="M66 0v724h159v-724h-159zM145 803c-42 0 -77 35 -77 77s35 77 77 77s77 -35 77 -77s-35 -77 -77 -77z" />
    <glyph glyph-name="Iogonek" unicode="&#x12e;" horiz-adv-x="291" 
d="M18 -116c0 40 18 83 48 116v724h159v-724c-61 -29 -84 -72 -84 -100c0 -23 15 -39 45 -39c11 0 29 2 46 7v-88c-19 -6 -48 -11 -76 -11c-84 0 -138 47 -138 115z" />
    <glyph glyph-name="Jcircumflex" unicode="&#x134;" horiz-adv-x="404" 
d="M179 235v489h159v-486c0 -93 -18 -146 -48 -183c-40 -49 -105 -66 -170 -66c-44 0 -82 9 -107 19v143c31 -12 68 -19 92 -19c60 0 74 27 74 103zM81 795l118 164h118l118 -164h-102l-75 91l-75 -91h-102z" />
    <glyph glyph-name="J" unicode="J" horiz-adv-x="404" 
d="M179 235v489h159v-486c0 -93 -18 -146 -48 -183c-40 -49 -105 -66 -170 -66c-44 0 -82 9 -107 19v143c31 -12 68 -19 92 -19c60 0 74 27 74 103z" />
    <glyph glyph-name="Kcommaaccent" unicode="&#x136;" horiz-adv-x="674" 
d="M66 0v724h159v-320l2 -1l253 321h189l-274 -336l297 -388h-196l-269 362l-2 -1v-361h-159zM295 -54h132l-80 -218h-102z" />
    <glyph glyph-name="Lacute" unicode="&#x139;" horiz-adv-x="555" 
d="M66 0v724h159v-585h317v-139h-476zM305 959l-116 -164h-104l84 164h136z" />
    <glyph glyph-name="Lcaron" unicode="&#x13d;" horiz-adv-x="555" 
d="M66 0v724h159v-585h317v-139h-476zM304 498l58 282h130l-93 -282h-95z" />
    <glyph glyph-name="Lcommaaccent" unicode="&#x13b;" horiz-adv-x="555" 
d="M66 0v724h159v-585h317v-139h-476zM255 -54h132l-80 -218h-102z" />
    <glyph glyph-name="Lslash" unicode="&#x141;" horiz-adv-x="563" 
d="M74 0v240l-85 -57v136l85 57v348h159v-242l122 82v-136l-122 -82v-207h317v-139h-476z" />
    <glyph glyph-name="Ldot" unicode="&#x13f;" horiz-adv-x="555" 
d="M66 0v724h159v-585h317v-139h-476zM333 406c0 50 42 90 92 90s92 -40 92 -90s-42 -90 -92 -90s-92 40 -92 90z" />
    <glyph glyph-name="Nacute" unicode="&#x143;" horiz-adv-x="788" 
d="M572 0l-217 292c-47 63 -91 124 -136 187l-2 -1c1 -69 2 -139 2 -209v-269h-153v724h150l217 -292c47 -63 91 -124 136 -187l2 1c-1 69 -2 139 -2 209v269h153v-724h-150zM532 959l-116 -164h-104l84 164h136z" />
    <glyph glyph-name="Ncaron" unicode="&#x147;" horiz-adv-x="788" 
d="M572 0l-217 292c-47 63 -91 124 -136 187l-2 -1c1 -69 2 -139 2 -209v-269h-153v724h150l217 -292c47 -63 91 -124 136 -187l2 1c-1 69 -2 139 -2 209v269h153v-724h-150zM571 959l-118 -164h-118l-118 164h102l75 -91l75 91h102z" />
    <glyph glyph-name="Ntilde" unicode="&#xd1;" horiz-adv-x="788" 
d="M572 0l-217 292c-47 63 -91 124 -136 187l-2 -1c1 -69 2 -139 2 -209v-269h-153v724h150l217 -292c47 -63 91 -124 136 -187l2 1c-1 69 -2 139 -2 209v269h153v-724h-150zM386 828c-27 13 -46 23 -69 23c-39 0 -66 -25 -87 -50l-2 1v113c20 20 50 37 89 37
c26 0 53 -9 85 -24c27 -13 46 -23 69 -23c39 0 66 25 87 50l2 -1v-113c-20 -20 -50 -37 -89 -37c-26 0 -53 9 -85 24z" />
    <glyph glyph-name="Ncommaaccent" unicode="&#x145;" horiz-adv-x="788" 
d="M572 0l-217 292c-47 63 -91 124 -136 187l-2 -1c1 -69 2 -139 2 -209v-269h-153v724h150l217 -292c47 -63 91 -124 136 -187l2 1c-1 69 -2 139 -2 209v269h153v-724h-150zM352 -54h132l-80 -218h-102z" />
    <glyph glyph-name="Ograve" unicode="&#xd2;" horiz-adv-x="824" 
d="M412 133c125 0 219 101 219 229s-94 229 -219 229s-219 -101 -219 -229s94 -229 219 -229zM412 -11c-215 0 -378 162 -378 373s163 373 378 373s378 -162 378 -373s-163 -373 -378 -373zM390 795l-116 164h136l84 -164h-104z" />
    <glyph glyph-name="Oacute" unicode="&#xd3;" horiz-adv-x="824" 
d="M412 133c125 0 219 101 219 229s-94 229 -219 229s-219 -101 -219 -229s94 -229 219 -229zM412 -11c-215 0 -378 162 -378 373s163 373 378 373s378 -162 378 -373s-163 -373 -378 -373zM550 959l-116 -164h-104l84 164h136z" />
    <glyph glyph-name="Ocircumflex" unicode="&#xd4;" horiz-adv-x="824" 
d="M412 133c125 0 219 101 219 229s-94 229 -219 229s-219 -101 -219 -229s94 -229 219 -229zM412 -11c-215 0 -378 162 -378 373s163 373 378 373s378 -162 378 -373s-163 -373 -378 -373zM235 795l118 164h118l118 -164h-102l-75 91l-75 -91h-102z" />
    <glyph glyph-name="Otilde" unicode="&#xd5;" horiz-adv-x="824" 
d="M412 133c125 0 219 101 219 229s-94 229 -219 229s-219 -101 -219 -229s94 -229 219 -229zM412 -11c-215 0 -378 162 -378 373s163 373 378 373s378 -162 378 -373s-163 -373 -378 -373zM404 828c-27 13 -46 23 -69 23c-39 0 -66 -25 -87 -50l-2 1v113c20 20 50 37 89 37
c26 0 53 -9 85 -24c27 -13 46 -23 69 -23c39 0 66 25 87 50l2 -1v-113c-20 -20 -50 -37 -89 -37c-26 0 -53 9 -85 24z" />
    <glyph glyph-name="Odieresis" unicode="&#xd6;" horiz-adv-x="824" 
d="M412 133c125 0 219 101 219 229s-94 229 -219 229s-219 -101 -219 -229s94 -229 219 -229zM412 -11c-215 0 -378 162 -378 373s163 373 378 373s378 -162 378 -373s-163 -373 -378 -373zM300 803c-42 0 -77 35 -77 77s35 77 77 77s77 -35 77 -77s-35 -77 -77 -77z
M524 803c-42 0 -77 35 -77 77s35 77 77 77s77 -35 77 -77s-35 -77 -77 -77z" />
    <glyph glyph-name="Omacron" unicode="&#x14c;" horiz-adv-x="824" 
d="M412 133c125 0 219 101 219 229s-94 229 -219 229s-219 -101 -219 -229s94 -229 219 -229zM412 -11c-215 0 -378 162 -378 373s163 373 378 373s378 -162 378 -373s-163 -373 -378 -373zM259 827v100h306v-100h-306z" />
    <glyph glyph-name="Obreve" unicode="&#x14e;" horiz-adv-x="824" 
d="M412 133c125 0 219 101 219 229s-94 229 -219 229s-219 -101 -219 -229s94 -229 219 -229zM412 -11c-215 0 -378 162 -378 373s163 373 378 373s378 -162 378 -373s-163 -373 -378 -373zM412 795c-102 0 -160 66 -163 164h84c3 -47 24 -87 79 -87s76 40 79 87h84
c-3 -98 -61 -164 -163 -164z" />
    <glyph glyph-name="Ohungarumlaut" unicode="&#x150;" horiz-adv-x="824" 
d="M412 133c125 0 219 101 219 229s-94 229 -219 229s-219 -101 -219 -229s94 -229 219 -229zM412 -11c-215 0 -378 162 -378 373s163 373 378 373s378 -162 378 -373s-163 -373 -378 -373zM420 795l74 164h110l-97 -164h-87zM256 795l74 164h110l-97 -164h-87z" />
    <glyph glyph-name="Racute" unicode="&#x154;" horiz-adv-x="653" 
d="M66 0v724h227c165 0 312 -45 312 -218c0 -93 -51 -169 -147 -200l204 -306h-183l-183 286h-71v-286h-159zM225 405h80c90 0 141 23 141 90c0 63 -42 90 -160 90h-61v-180zM444 959l-116 -164h-104l84 164h136z" />
    <glyph glyph-name="R" unicode="R" horiz-adv-x="653" 
d="M66 0v724h227c165 0 312 -45 312 -218c0 -93 -51 -169 -147 -200l204 -306h-183l-183 286h-71v-286h-159zM225 405h80c90 0 141 23 141 90c0 63 -42 90 -160 90h-61v-180z" />
    <glyph glyph-name="Rcaron" unicode="&#x158;" horiz-adv-x="653" 
d="M66 0v724h227c165 0 312 -45 312 -218c0 -93 -51 -169 -147 -200l204 -306h-183l-183 286h-71v-286h-159zM225 405h80c90 0 141 23 141 90c0 63 -42 90 -160 90h-61v-180zM483 959l-118 -164h-118l-118 164h102l75 -91l75 91h102z" />
    <glyph glyph-name="Rcommaaccent" unicode="&#x156;" horiz-adv-x="653" 
d="M66 0v724h227c165 0 312 -45 312 -218c0 -93 -51 -169 -147 -200l204 -306h-183l-183 286h-71v-286h-159zM225 405h80c90 0 141 23 141 90c0 63 -42 90 -160 90h-61v-180zM264 -54h132l-80 -218h-102z" />
    <glyph glyph-name="Sacute" unicode="&#x15a;" horiz-adv-x="576" 
d="M61 40v160c78 -50 170 -72 227 -72c58 0 101 23 101 77c0 67 -68 73 -161 103c-100 33 -190 82 -190 208c0 135 102 219 254 219c71 0 158 -18 221 -52v-157c-77 48 -166 70 -222 70c-54 0 -93 -20 -93 -68c0 -64 67 -69 154 -98c109 -36 197 -87 197 -215
c0 -141 -107 -226 -263 -226c-72 0 -159 18 -225 51zM426 959l-116 -164h-104l84 164h136z" />
    <glyph glyph-name="Scircumflex" unicode="&#x15c;" horiz-adv-x="576" 
d="M61 40v160c78 -50 170 -72 227 -72c58 0 101 23 101 77c0 67 -68 73 -161 103c-100 33 -190 82 -190 208c0 135 102 219 254 219c71 0 158 -18 221 -52v-157c-77 48 -166 70 -222 70c-54 0 -93 -20 -93 -68c0 -64 67 -69 154 -98c109 -36 197 -87 197 -215
c0 -141 -107 -226 -263 -226c-72 0 -159 18 -225 51zM111 795l118 164h118l118 -164h-102l-75 91l-75 -91h-102z" />
    <glyph glyph-name="Scaron" unicode="&#x160;" horiz-adv-x="576" 
d="M61 40v160c78 -50 170 -72 227 -72c58 0 101 23 101 77c0 67 -68 73 -161 103c-100 33 -190 82 -190 208c0 135 102 219 254 219c71 0 158 -18 221 -52v-157c-77 48 -166 70 -222 70c-54 0 -93 -20 -93 -68c0 -64 67 -69 154 -98c109 -36 197 -87 197 -215
c0 -141 -107 -226 -263 -226c-72 0 -159 18 -225 51zM465 959l-118 -164h-118l-118 164h102l75 -91l75 91h102z" />
    <glyph glyph-name="Scedilla" unicode="&#x15e;" horiz-adv-x="576" 
d="M231 -87l24 77c-65 4 -137 21 -194 50v160c78 -50 170 -72 227 -72c58 0 101 23 101 77c0 67 -68 73 -161 103c-100 33 -190 82 -190 208c0 135 102 219 254 219c71 0 158 -18 221 -52v-157c-77 48 -166 70 -222 70c-54 0 -93 -20 -93 -68c0 -64 67 -69 154 -98
c109 -36 197 -87 197 -215c0 -132 -94 -215 -233 -225l-9 -27c55 -11 88 -43 88 -91c0 -56 -45 -93 -113 -93c-34 0 -65 9 -87 19l21 66c21 -11 45 -19 65 -19s39 8 39 26c0 33 -59 40 -89 42z" />
    <glyph glyph-name="Scommaaccent" unicode="&#x218;" horiz-adv-x="576" 
d="M61 40v160c78 -50 170 -72 227 -72c58 0 101 23 101 77c0 67 -68 73 -161 103c-100 33 -190 82 -190 208c0 135 102 219 254 219c71 0 158 -18 221 -52v-157c-77 48 -166 70 -222 70c-54 0 -93 -20 -93 -68c0 -64 67 -69 154 -98c109 -36 197 -87 197 -215
c0 -141 -107 -226 -263 -226c-72 0 -159 18 -225 51zM246 -54h132l-80 -218h-102z" />
    <glyph glyph-name="Tcaron" unicode="&#x164;" horiz-adv-x="657" 
d="M249 0v585h-234v139h627v-139h-234v-585h-159zM505 959l-118 -164h-118l-118 164h102l75 -91l75 91h102z" />
    <glyph glyph-name="Tbar" unicode="&#x166;" horiz-adv-x="657" 
d="M133 289v111h116v185h-234v139h627v-139h-234v-185h116v-111h-116v-289h-159v289h-116z" />
    <glyph glyph-name="Ugrave" unicode="&#xd9;" horiz-adv-x="749" 
d="M113 107c-39 58 -54 137 -54 240v377h159v-371c0 -152 34 -221 160 -221c116 0 159 64 159 220v372h153v-373c0 -109 -15 -188 -56 -246c-51 -73 -144 -116 -260 -116s-210 43 -261 118zM355 795l-116 164h136l84 -164h-104z" />
    <glyph glyph-name="Uacute" unicode="&#xda;" horiz-adv-x="749" 
d="M113 107c-39 58 -54 137 -54 240v377h159v-371c0 -152 34 -221 160 -221c116 0 159 64 159 220v372h153v-373c0 -109 -15 -188 -56 -246c-51 -73 -144 -116 -260 -116s-210 43 -261 118zM515 959l-116 -164h-104l84 164h136z" />
    <glyph glyph-name="Ucircumflex" unicode="&#xdb;" horiz-adv-x="749" 
d="M113 107c-39 58 -54 137 -54 240v377h159v-371c0 -152 34 -221 160 -221c116 0 159 64 159 220v372h153v-373c0 -109 -15 -188 -56 -246c-51 -73 -144 -116 -260 -116s-210 43 -261 118zM200 795l118 164h118l118 -164h-102l-75 91l-75 -91h-102z" />
    <glyph glyph-name="Utilde" unicode="&#x168;" horiz-adv-x="749" 
d="M113 107c-39 58 -54 137 -54 240v377h159v-371c0 -152 34 -221 160 -221c116 0 159 64 159 220v372h153v-373c0 -109 -15 -188 -56 -246c-51 -73 -144 -116 -260 -116s-210 43 -261 118zM369 828c-27 13 -46 23 -69 23c-39 0 -66 -25 -87 -50l-2 1v113c20 20 50 37 89 37
c26 0 53 -9 85 -24c27 -13 46 -23 69 -23c39 0 66 25 87 50l2 -1v-113c-20 -20 -50 -37 -89 -37c-26 0 -53 9 -85 24z" />
    <glyph glyph-name="Udieresis" unicode="&#xdc;" horiz-adv-x="749" 
d="M113 107c-39 58 -54 137 -54 240v377h159v-371c0 -152 34 -221 160 -221c116 0 159 64 159 220v372h153v-373c0 -109 -15 -188 -56 -246c-51 -73 -144 -116 -260 -116s-210 43 -261 118zM265 803c-42 0 -77 35 -77 77s35 77 77 77s77 -35 77 -77s-35 -77 -77 -77z
M489 803c-42 0 -77 35 -77 77s35 77 77 77s77 -35 77 -77s-35 -77 -77 -77z" />
    <glyph glyph-name="Umacron" unicode="&#x16a;" horiz-adv-x="749" 
d="M113 107c-39 58 -54 137 -54 240v377h159v-371c0 -152 34 -221 160 -221c116 0 159 64 159 220v372h153v-373c0 -109 -15 -188 -56 -246c-51 -73 -144 -116 -260 -116s-210 43 -261 118zM224 827v100h306v-100h-306z" />
    <glyph glyph-name="Ubreve" unicode="&#x16c;" horiz-adv-x="749" 
d="M113 107c-39 58 -54 137 -54 240v377h159v-371c0 -152 34 -221 160 -221c116 0 159 64 159 220v372h153v-373c0 -109 -15 -188 -56 -246c-51 -73 -144 -116 -260 -116s-210 43 -261 118zM377 795c-102 0 -160 66 -163 164h84c3 -47 24 -87 79 -87s76 40 79 87h84
c-3 -98 -61 -164 -163 -164z" />
    <glyph glyph-name="Uring" unicode="&#x16e;" horiz-adv-x="749" 
d="M113 107c-39 58 -54 137 -54 240v377h159v-371c0 -152 34 -221 160 -221c116 0 159 64 159 220v372h153v-373c0 -109 -15 -188 -56 -246c-51 -73 -144 -116 -260 -116s-210 43 -261 118zM377 773c-75 0 -130 54 -130 124s55 124 130 124s130 -54 130 -124
s-55 -124 -130 -124zM377 837c36 0 58 27 58 60s-22 60 -58 60s-58 -27 -58 -60s22 -60 58 -60z" />
    <glyph glyph-name="Uhungarumlaut" unicode="&#x170;" horiz-adv-x="749" 
d="M113 107c-39 58 -54 137 -54 240v377h159v-371c0 -152 34 -221 160 -221c116 0 159 64 159 220v372h153v-373c0 -109 -15 -188 -56 -246c-51 -73 -144 -116 -260 -116s-210 43 -261 118zM385 795l74 164h110l-97 -164h-87zM221 795l74 164h110l-97 -164h-87z" />
    <glyph glyph-name="Uogonek" unicode="&#x172;" horiz-adv-x="749" 
d="M218 724v-371c0 -77 7 -124 28 -158c22 -35 64 -63 132 -63c63 0 104 23 128 60c22 34 31 84 31 160v372h153v-373c0 -109 -15 -188 -56 -246c-37 -54 -97 -91 -172 -107c-58 -36 -77 -71 -77 -98c0 -23 15 -39 45 -39c12 0 32 3 49 8v-88c-19 -6 -49 -12 -79 -12
c-84 0 -138 44 -138 107c0 35 17 78 57 115l-1 2c-89 10 -162 51 -205 114c-39 58 -54 137 -54 240v377h159z" />
    <glyph glyph-name="Wgrave" unicode="&#x1e80;" horiz-adv-x="1053" 
d="M228 0l-221 724h167l92 -311c18 -61 36 -126 52 -187h2c17 62 36 127 55 188l96 310h116l95 -310c19 -62 38 -126 55 -188h2c16 61 35 128 54 190l93 308h160l-223 -724h-168l-78 255c-19 61 -35 115 -51 173h-2c-16 -58 -33 -115 -52 -176l-78 -252h-166zM506 795
l-116 164h136l84 -164h-104z" />
    <glyph glyph-name="Wacute" unicode="&#x1e82;" horiz-adv-x="1053" 
d="M228 0l-221 724h167l92 -311c18 -61 36 -126 52 -187h2c17 62 36 127 55 188l96 310h116l95 -310c19 -62 38 -126 55 -188h2c16 61 35 128 54 190l93 308h160l-223 -724h-168l-78 255c-19 61 -35 115 -51 173h-2c-16 -58 -33 -115 -52 -176l-78 -252h-166zM666 959
l-116 -164h-104l84 164h136z" />
    <glyph glyph-name="Wcircumflex" unicode="&#x174;" horiz-adv-x="1053" 
d="M228 0l-221 724h167l92 -311c18 -61 36 -126 52 -187h2c17 62 36 127 55 188l96 310h116l95 -310c19 -62 38 -126 55 -188h2c16 61 35 128 54 190l93 308h160l-223 -724h-168l-78 255c-19 61 -35 115 -51 173h-2c-16 -58 -33 -115 -52 -176l-78 -252h-166zM351 795
l118 164h118l118 -164h-102l-75 91l-75 -91h-102z" />
    <glyph glyph-name="Wdieresis" unicode="&#x1e84;" horiz-adv-x="1053" 
d="M228 0l-221 724h167l92 -311c18 -61 36 -126 52 -187h2c17 62 36 127 55 188l96 310h116l95 -310c19 -62 38 -126 55 -188h2c16 61 35 128 54 190l93 308h160l-223 -724h-168l-78 255c-19 61 -35 115 -51 173h-2c-16 -58 -33 -115 -52 -176l-78 -252h-166zM416 803
c-42 0 -77 35 -77 77s35 77 77 77s77 -35 77 -77s-35 -77 -77 -77zM640 803c-42 0 -77 35 -77 77s35 77 77 77s77 -35 77 -77s-35 -77 -77 -77z" />
    <glyph glyph-name="Ygrave" unicode="&#x1ef2;" horiz-adv-x="689" 
d="M266 0v327l-279 397h185l88 -131c28 -41 59 -89 87 -133h2c28 44 57 89 87 134l87 130h179l-277 -396v-328h-159zM325 795l-116 164h136l84 -164h-104z" />
    <glyph glyph-name="Yacute" unicode="&#xdd;" horiz-adv-x="689" 
d="M266 0v327l-279 397h185l88 -131c28 -41 59 -89 87 -133h2c28 44 57 89 87 134l87 130h179l-277 -396v-328h-159zM485 959l-116 -164h-104l84 164h136z" />
    <glyph glyph-name="Ycircumflex" unicode="&#x176;" horiz-adv-x="689" 
d="M266 0v327l-279 397h185l88 -131c28 -41 59 -89 87 -133h2c28 44 57 89 87 134l87 130h179l-277 -396v-328h-159zM170 795l118 164h118l118 -164h-102l-75 91l-75 -91h-102z" />
    <glyph glyph-name="Ydieresis" unicode="&#x178;" horiz-adv-x="689" 
d="M266 0v327l-279 397h185l88 -131c28 -41 59 -89 87 -133h2c28 44 57 89 87 134l87 130h179l-277 -396v-328h-159zM235 803c-42 0 -77 35 -77 77s35 77 77 77s77 -35 77 -77s-35 -77 -77 -77zM459 803c-42 0 -77 35 -77 77s35 77 77 77s77 -35 77 -77s-35 -77 -77 -77z
" />
    <glyph glyph-name="Zacute" unicode="&#x179;" horiz-adv-x="650" 
d="M8 2l343 581l-1 2h-310v139h572l1 -2l-343 -581l1 -2h333v-139h-595zM467 959l-116 -164h-104l84 164h136z" />
    <glyph glyph-name="Zcaron" unicode="&#x17d;" horiz-adv-x="650" 
d="M8 2l343 581l-1 2h-310v139h572l1 -2l-343 -581l1 -2h333v-139h-595zM506 959l-118 -164h-118l-118 164h102l75 -91l75 91h102z" />
    <glyph glyph-name="Zdotaccent" unicode="&#x17b;" horiz-adv-x="650" 
d="M8 2l343 581l-1 2h-310v139h572l1 -2l-343 -581l1 -2h333v-139h-595zM329 803c-42 0 -77 35 -77 77s35 77 77 77s77 -35 77 -77s-35 -77 -77 -77z" />
    <glyph glyph-name="iogonek" unicode="&#x12f;" horiz-adv-x="278" 
d="M15 -116c0 40 19 83 48 116v492h152v-492c-55 -32 -77 -72 -77 -100c0 -23 15 -39 45 -39c11 0 27 2 43 6v-88c-18 -5 -46 -10 -72 -10c-85 0 -139 47 -139 115zM51 648c0 48 40 87 88 87s88 -39 88 -87s-40 -87 -88 -87s-88 39 -88 87z" />
    <glyph glyph-name="cacute" unicode="&#x107;" horiz-adv-x="512" 
d="M33 245c0 155 128 258 282 258c55 0 106 -13 146 -33v-141c-44 28 -92 46 -139 46c-81 0 -137 -55 -137 -129c0 -75 57 -128 139 -128c48 0 103 18 144 49v-140c-47 -26 -105 -38 -161 -38c-158 0 -274 108 -274 256zM466 727l-116 -164h-104l84 164h136z" />
    <glyph glyph-name="ccircumflex" unicode="&#x109;" horiz-adv-x="512" 
d="M33 245c0 155 128 258 282 258c55 0 106 -13 146 -33v-141c-44 28 -92 46 -139 46c-81 0 -137 -55 -137 -129c0 -75 57 -128 139 -128c48 0 103 18 144 49v-140c-47 -26 -105 -38 -161 -38c-158 0 -274 108 -274 256zM115 563l118 164h118l118 -164h-102l-75 91l-75 -91
h-102z" />
    <glyph glyph-name="ccaron" unicode="&#x10d;" horiz-adv-x="512" 
d="M33 245c0 155 128 258 282 258c55 0 106 -13 146 -33v-141c-44 28 -92 46 -139 46c-81 0 -137 -55 -137 -129c0 -75 57 -128 139 -128c48 0 103 18 144 49v-140c-47 -26 -105 -38 -161 -38c-158 0 -274 108 -274 256zM469 727l-118 -164h-118l-118 164h102l75 -91l75 91
h102z" />
    <glyph glyph-name="cdotaccent" unicode="&#x10b;" horiz-adv-x="512" 
d="M33 245c0 155 128 258 282 258c55 0 106 -13 146 -33v-141c-44 28 -92 46 -139 46c-81 0 -137 -55 -137 -129c0 -75 57 -128 139 -128c48 0 103 18 144 49v-140c-47 -26 -105 -38 -161 -38c-158 0 -274 108 -274 256zM292 571c-42 0 -77 35 -77 77s35 77 77 77
s77 -35 77 -77s-35 -77 -77 -77z" />
    <glyph glyph-name="ccedilla" unicode="&#xe7;" horiz-adv-x="512" 
d="M225 -87l26 81c-129 22 -218 121 -218 251c0 155 128 258 282 258c55 0 106 -13 146 -33v-141c-44 28 -92 46 -139 46c-81 0 -137 -55 -137 -129c0 -75 57 -128 139 -128c48 0 103 18 144 49v-140c-47 -26 -104 -37 -159 -38l-8 -26c55 -11 88 -43 88 -91
c0 -56 -45 -93 -113 -93c-34 0 -65 9 -87 19l21 66c21 -11 45 -19 65 -19s39 8 39 26c0 33 -59 40 -89 42z" />
    <glyph glyph-name="dcaron" unicode="&#x10f;" horiz-adv-x="744" 
d="M36 236c0 155 113 267 260 267c37 0 67 -7 93 -18l2 1v278h152v-764h-149v26l-2 1c-33 -23 -77 -38 -125 -38c-124 0 -231 96 -231 247zM189 243c0 -73 42 -130 117 -130c33 0 63 11 85 25v220c-22 11 -49 19 -79 19c-80 0 -123 -60 -123 -134zM637 764h132l-80 -218
h-102z" />
    <glyph glyph-name="egrave" unicode="&#xe8;" horiz-adv-x="561" 
d="M522 206h-334c17 -68 73 -99 143 -99c55 0 115 19 167 54v-127c-48 -30 -122 -45 -187 -45c-162 0 -279 101 -279 255c0 157 122 259 258 259c121 0 235 -80 235 -245c0 -17 -1 -39 -3 -52zM288 387c-47 0 -88 -29 -101 -85h198c-9 53 -48 85 -97 85zM258 563l-116 164
h136l84 -164h-104z" />
    <glyph glyph-name="eacute" unicode="&#xe9;" horiz-adv-x="561" 
d="M522 206h-334c17 -68 73 -99 143 -99c55 0 115 19 167 54v-127c-48 -30 -122 -45 -187 -45c-162 0 -279 101 -279 255c0 157 122 259 258 259c121 0 235 -80 235 -245c0 -17 -1 -39 -3 -52zM288 387c-47 0 -88 -29 -101 -85h198c-9 53 -48 85 -97 85zM418 727l-116 -164
h-104l84 164h136z" />
    <glyph glyph-name="ecircumflex" unicode="&#xea;" horiz-adv-x="561" 
d="M522 206h-334c17 -68 73 -99 143 -99c55 0 115 19 167 54v-127c-48 -30 -122 -45 -187 -45c-162 0 -279 101 -279 255c0 157 122 259 258 259c121 0 235 -80 235 -245c0 -17 -1 -39 -3 -52zM288 387c-47 0 -88 -29 -101 -85h198c-9 53 -48 85 -97 85zM103 563l118 164
h118l118 -164h-102l-75 91l-75 -91h-102z" />
    <glyph glyph-name="ecaron" unicode="&#x11b;" horiz-adv-x="561" 
d="M522 206h-334c17 -68 73 -99 143 -99c55 0 115 19 167 54v-127c-48 -30 -122 -45 -187 -45c-162 0 -279 101 -279 255c0 157 122 259 258 259c121 0 235 -80 235 -245c0 -17 -1 -39 -3 -52zM288 387c-47 0 -88 -29 -101 -85h198c-9 53 -48 85 -97 85zM457 727l-118 -164
h-118l-118 164h102l75 -91l75 91h102z" />
    <glyph glyph-name="edieresis" unicode="&#xeb;" horiz-adv-x="561" 
d="M522 206h-334c17 -68 73 -99 143 -99c55 0 115 19 167 54v-127c-48 -30 -122 -45 -187 -45c-162 0 -279 101 -279 255c0 157 122 259 258 259c121 0 235 -80 235 -245c0 -17 -1 -39 -3 -52zM288 387c-47 0 -88 -29 -101 -85h198c-9 53 -48 85 -97 85zM168 571
c-42 0 -77 35 -77 77s35 77 77 77s77 -35 77 -77s-35 -77 -77 -77zM392 571c-42 0 -77 35 -77 77s35 77 77 77s77 -35 77 -77s-35 -77 -77 -77z" />
    <glyph glyph-name="emacron" unicode="&#x113;" horiz-adv-x="561" 
d="M522 206h-334c17 -68 73 -99 143 -99c55 0 115 19 167 54v-127c-48 -30 -122 -45 -187 -45c-162 0 -279 101 -279 255c0 157 122 259 258 259c121 0 235 -80 235 -245c0 -17 -1 -39 -3 -52zM288 387c-47 0 -88 -29 -101 -85h198c-9 53 -48 85 -97 85zM127 595v100h306
v-100h-306z" />
    <glyph glyph-name="ebreve" unicode="&#x115;" horiz-adv-x="561" 
d="M522 206h-334c17 -68 73 -99 143 -99c55 0 115 19 167 54v-127c-48 -30 -122 -45 -187 -45c-162 0 -279 101 -279 255c0 157 122 259 258 259c121 0 235 -80 235 -245c0 -17 -1 -39 -3 -52zM288 387c-47 0 -88 -29 -101 -85h198c-9 53 -48 85 -97 85zM280 563
c-102 0 -160 66 -163 164h84c3 -47 24 -87 79 -87s76 40 79 87h84c-3 -98 -61 -164 -163 -164z" />
    <glyph glyph-name="edotaccent" unicode="&#x117;" horiz-adv-x="561" 
d="M522 206h-334c17 -68 73 -99 143 -99c55 0 115 19 167 54v-127c-48 -30 -122 -45 -187 -45c-162 0 -279 101 -279 255c0 157 122 259 258 259c121 0 235 -80 235 -245c0 -17 -1 -39 -3 -52zM288 387c-47 0 -88 -29 -101 -85h198c-9 53 -48 85 -97 85zM280 571
c-42 0 -77 35 -77 77s35 77 77 77s77 -35 77 -77s-35 -77 -77 -77z" />
    <glyph glyph-name="eogonek" unicode="&#x119;" horiz-adv-x="561" 
d="M498 34c-108 -62 -129 -107 -129 -133c0 -24 15 -40 46 -40c12 0 30 3 47 7v-87c-19 -6 -48 -12 -77 -12c-83 0 -136 43 -136 107c0 34 15 75 52 111l-1 2c-156 5 -268 104 -268 255c0 157 122 259 258 259c121 0 235 -80 235 -245c0 -17 -1 -39 -3 -52h-334
c17 -68 73 -99 143 -99c55 0 115 19 167 54v-127zM288 387c-47 0 -88 -29 -101 -85h198c-9 53 -48 85 -97 85z" />
    <glyph glyph-name="hcircumflex" unicode="&#x125;" horiz-adv-x="600" 
d="M63 0v764h152v-316l2 -1c36 30 88 56 150 56c52 0 98 -18 129 -50c30 -32 43 -75 43 -146v-307h-152v282c0 37 -5 55 -17 69c-13 15 -31 21 -52 21c-39 0 -76 -20 -103 -41v-331h-152zM-38 826l118 164h118l118 -164h-102l-75 91l-75 -91h-102z" />
    <glyph glyph-name="hbar" unicode="&#x127;" horiz-adv-x="600" 
d="M-4 569v108h67v87h152v-87h137v-108h-137v-121l2 -1c36 30 88 56 150 56c52 0 98 -18 129 -50c30 -32 43 -75 43 -146v-307h-152v282c0 37 -5 55 -17 69c-13 15 -31 21 -52 21c-39 0 -76 -20 -103 -41v-331h-152v569h-67z" />
    <glyph glyph-name="igrave" unicode="&#xec;" horiz-adv-x="278" 
d="M63 0v492h152v-492h-152zM117 563l-116 164h136l84 -164h-104z" />
    <glyph glyph-name="iacute" unicode="&#xed;" horiz-adv-x="278" 
d="M63 0v492h152v-492h-152zM277 727l-116 -164h-104l84 164h136z" />
    <glyph glyph-name="icircumflex" unicode="&#xee;" horiz-adv-x="278" 
d="M63 0v492h152v-492h-152zM-38 563l118 164h118l118 -164h-102l-75 91l-75 -91h-102z" />
    <glyph glyph-name="itilde" unicode="&#x129;" horiz-adv-x="278" 
d="M63 0v492h152v-492h-152zM131 596c-27 13 -46 23 -69 23c-39 0 -66 -25 -87 -50l-2 1v113c20 20 50 37 89 37c26 0 53 -9 85 -24c27 -13 46 -23 69 -23c39 0 66 25 87 50l2 -1v-113c-20 -20 -50 -37 -89 -37c-26 0 -53 9 -85 24z" />
    <glyph glyph-name="idieresis" unicode="&#xef;" horiz-adv-x="278" 
d="M63 0v492h152v-492h-152zM27 571c-42 0 -77 35 -77 77s35 77 77 77s77 -35 77 -77s-35 -77 -77 -77zM251 571c-42 0 -77 35 -77 77s35 77 77 77s77 -35 77 -77s-35 -77 -77 -77z" />
    <glyph glyph-name="imacron" unicode="&#x12b;" horiz-adv-x="278" 
d="M63 0v492h152v-492h-152zM-14 595v100h306v-100h-306z" />
    <glyph glyph-name="ibreve" unicode="&#x12d;" horiz-adv-x="278" 
d="M63 0v492h152v-492h-152zM139 563c-102 0 -160 66 -163 164h84c3 -47 24 -87 79 -87s76 40 79 87h84c-3 -98 -61 -164 -163 -164z" />
    <glyph glyph-name="perthousand" unicode="&#x2030;" horiz-adv-x="1349" 
d="M223 361c-111 0 -180 80 -180 187s69 187 180 187s180 -80 180 -187s-69 -187 -180 -187zM178 0l473 724h102l-473 -724h-102zM223 454c47 0 77 42 77 94s-30 94 -77 94s-77 -42 -77 -94s30 -94 77 -94zM946 176c0 107 69 187 180 187s180 -80 180 -187
s-69 -187 -180 -187s-180 80 -180 187zM528 176c0 107 69 187 180 187s180 -80 180 -187s-69 -187 -180 -187s-180 80 -180 187zM1049 176c0 -52 30 -94 77 -94s77 42 77 94s-30 94 -77 94s-77 -42 -77 -94zM631 176c0 -52 30 -94 77 -94s77 42 77 94s-30 94 -77 94
s-77 -42 -77 -94z" />
    <glyph glyph-name="trademark" unicode="&#x2122;" horiz-adv-x="647" 
d="M525 434v98c0 25 1 51 2 69l-2 1c-10 -17 -23 -36 -37 -55l-37 -51l-37 51c-14 19 -27 38 -37 55l-2 -1c1 -18 2 -44 2 -69v-98h-75v290h72l78 -107l77 107h73v-290h-77zM104 434v220h-81v70h240v-70h-81v-220h-78z" />
    <glyph glyph-name="florin" unicode="&#x192;" horiz-adv-x="536" 
d="M115 366l22 126h80l16 90c25 141 125 184 224 184c26 0 53 -3 71 -9v-127c-23 5 -49 8 -67 8c-40 0 -70 -14 -80 -69l-14 -77h115l-22 -126h-115l-72 -415c-26 -150 -123 -182 -212 -182c-32 0 -56 4 -72 8v130c18 -4 44 -9 65 -9c42 0 63 20 71 66l70 402h-80z" />
    <glyph glyph-name="cent" unicode="&#xa2;" horiz-adv-x="516" 
d="M223 -18v132c-117 31 -193 126 -193 245c0 125 83 217 193 247v136h117v-125c44 -4 86 -15 118 -32v-141c-43 27 -91 46 -139 46c-82 0 -137 -55 -137 -129c0 -75 57 -128 139 -128c48 0 103 18 144 49v-140c-35 -21 -81 -32 -125 -36v-124h-117z" />
    <glyph glyph-name="currency" unicode="&#xa4;" horiz-adv-x="598" 
d="M198 350c0 -60 40 -107 101 -107s101 47 101 107s-40 107 -101 107s-101 -47 -101 -107zM85 350c0 36 8 70 22 99l-78 79l91 91l78 -79c29 15 64 23 101 23s72 -8 101 -23l78 79l91 -91l-78 -79c14 -29 22 -63 22 -99s-8 -70 -22 -99l78 -79l-91 -91l-78 79
c-29 -15 -64 -23 -101 -23s-72 8 -101 23l-78 -79l-91 91l78 79c-14 29 -22 63 -22 99z" />
    <glyph glyph-name="ae" unicode="&#xe6;" horiz-adv-x="829" 
d="M243 503c64 0 128 -15 166 -53h2c40 34 93 53 150 53c119 0 232 -79 232 -245c0 -16 -1 -39 -3 -52h-330c18 -68 72 -99 142 -99c54 0 112 19 164 54v-127c-47 -29 -118 -45 -184 -45c-53 0 -142 11 -203 71c-44 -42 -106 -71 -174 -71c-43 0 -83 11 -115 33
c-36 25 -59 63 -59 115c0 53 25 94 60 118c38 26 87 35 136 35c29 0 56 -3 82 -8v18c0 26 -8 42 -19 52c-13 12 -34 21 -73 21c-55 0 -104 -18 -142 -39v131c39 20 98 38 168 38zM558 388c-46 0 -85 -29 -99 -86h194c-8 53 -46 86 -95 86zM330 136c-7 17 -13 36 -16 57
c-21 5 -41 7 -56 7c-41 0 -80 -13 -80 -51c0 -32 29 -48 64 -48c27 0 58 9 88 35z" />
    <glyph glyph-name="aeacute" unicode="&#x1fd;" horiz-adv-x="829" 
d="M243 503c64 0 128 -15 166 -53h2c40 34 93 53 150 53c119 0 232 -79 232 -245c0 -16 -1 -39 -3 -52h-330c18 -68 72 -99 142 -99c54 0 112 19 164 54v-127c-47 -29 -118 -45 -184 -45c-53 0 -142 11 -203 71c-44 -42 -106 -71 -174 -71c-43 0 -83 11 -115 33
c-36 25 -59 63 -59 115c0 53 25 94 60 118c38 26 87 35 136 35c29 0 56 -3 82 -8v18c0 26 -8 42 -19 52c-13 12 -34 21 -73 21c-55 0 -104 -18 -142 -39v131c39 20 98 38 168 38zM558 388c-46 0 -85 -29 -99 -86h194c-8 53 -46 86 -95 86zM330 136c-7 17 -13 36 -16 57
c-21 5 -41 7 -56 7c-41 0 -80 -13 -80 -51c0 -32 29 -48 64 -48c27 0 58 9 88 35zM583 727l-116 -164h-104l84 164h136z" />
    <glyph glyph-name="AE" unicode="&#xc6;" horiz-adv-x="958" 
d="M-8 0l398 724h520v-139h-278v-142h238v-132h-238v-172h289v-139h-448v152h-235l-82 -152h-164zM369 395l-64 -118h168v116c0 66 1 138 2 198h-2z" />
    <glyph glyph-name="AEacute" unicode="&#x1fc;" horiz-adv-x="958" 
d="M-8 0l398 724h520v-139h-278v-142h238v-132h-238v-172h289v-139h-448v152h-235l-82 -152h-164zM369 395l-64 -118h168v116c0 66 1 138 2 198h-2zM782 959l-116 -164h-104l84 164h136z" />
    <glyph glyph-name="OE" unicode="&#x152;" horiz-adv-x="936" 
d="M154 635c74 60 178 89 330 89h404v-139h-278v-142h238v-132h-238v-172h289v-139h-422c-129 0 -229 21 -304 73c-89 62 -139 164 -139 288c0 114 43 211 120 274zM277 183c45 -32 104 -42 174 -44v445c-89 -3 -147 -21 -188 -56c-43 -37 -70 -95 -70 -167
c0 -76 30 -140 84 -178z" />
    <glyph glyph-name="eng" unicode="&#x14b;" horiz-adv-x="600" 
d="M63 0v492h150v-45l2 -1c38 31 90 57 152 57c52 0 98 -18 129 -50c30 -32 43 -75 43 -146v-321c0 -91 -16 -134 -45 -164c-37 -38 -96 -53 -149 -53c-28 0 -54 4 -69 8v125c16 -3 36 -5 50 -5c53 0 61 29 61 79v306c0 37 -5 55 -17 69c-13 15 -31 21 -52 21
c-39 0 -76 -20 -103 -41v-331h-152z" />
    <glyph glyph-name="Oslash" unicode="&#xd8;" horiz-adv-x="824" 
d="M193 362c0 -55 17 -106 47 -145l286 342c-33 20 -72 32 -114 32c-125 0 -219 -101 -219 -229zM34 362c0 211 163 373 378 373c79 0 151 -22 211 -61l59 71l60 -50l-58 -70c67 -66 106 -159 106 -263c0 -211 -163 -373 -378 -373c-79 0 -151 22 -211 61l-59 -71l-60 50
l58 70c-67 66 -106 159 -106 263zM631 362c0 55 -17 106 -47 145l-286 -342c33 -20 72 -32 114 -32c125 0 219 101 219 229z" />
    <glyph glyph-name="Oslashacute" unicode="&#x1fe;" horiz-adv-x="824" 
d="M193 362c0 -55 17 -106 47 -145l286 342c-33 20 -72 32 -114 32c-125 0 -219 -101 -219 -229zM34 362c0 211 163 373 378 373c79 0 151 -22 211 -61l59 71l60 -50l-58 -70c67 -66 106 -159 106 -263c0 -211 -163 -373 -378 -373c-79 0 -151 22 -211 61l-59 -71l-60 50
l58 70c-67 66 -106 159 -106 263zM631 362c0 55 -17 106 -47 145l-286 -342c33 -20 72 -32 114 -32c125 0 219 101 219 229zM545 959l-116 -164h-104l84 164h136z" />
    <glyph glyph-name="registered" unicode="&#xae;" horiz-adv-x="441" 
d="M221 363c-108 0 -188 80 -188 186s80 186 188 186s188 -80 188 -186s-80 -186 -188 -186zM221 399c90 0 150 65 150 150s-60 150 -150 150s-150 -65 -150 -150s60 -150 150 -150zM256 448l-39 71h-20v-71h-50v202h79c42 0 78 -23 78 -66c0 -28 -16 -47 -39 -57l48 -79
h-57zM197 555h24c20 0 32 8 32 26c0 17 -12 25 -32 25h-24v-51z" />
    <glyph glyph-name="periodcentered" unicode="&#xb7;" horiz-adv-x="306" 
d="M61 302c0 50 42 90 92 90s92 -40 92 -90s-42 -90 -92 -90s-92 40 -92 90z" />
    <glyph glyph-name="ordfeminine" unicode="&#xaa;" horiz-adv-x="377" 
d="M156 401c-28 0 -55 7 -76 22c-22 16 -39 41 -39 75c0 36 19 61 40 76c24 17 55 24 89 24c18 0 35 -2 53 -7v11c0 29 -21 43 -59 43c-35 0 -68 -11 -93 -24v91c25 12 66 23 113 23c44 0 81 -10 108 -31c26 -21 37 -50 37 -89v-103c0 -14 5 -25 18 -25c5 0 11 2 17 5v-79
c-12 -7 -31 -11 -52 -11c-26 0 -51 6 -70 25h-2c-22 -16 -50 -26 -84 -26zM182 477c14 0 30 4 41 11v43c-10 3 -24 4 -33 4c-24 0 -46 -8 -46 -30c0 -19 17 -28 38 -28z" />
    <glyph glyph-name="ordmasculine" unicode="&#xba;" horiz-adv-x="403" 
d="M201 401c-104 0 -179 71 -179 167c0 95 75 167 180 167c104 0 179 -71 179 -167c0 -95 -75 -167 -180 -167zM202 494c41 0 69 31 69 73c0 43 -29 75 -70 75s-69 -31 -69 -73c0 -43 28 -75 70 -75z" />
    <glyph glyph-name="integral" unicode="&#x222b;" horiz-adv-x="353" 
d="M18 -49c21 -4 42 -6 57 -6c45 0 68 19 68 73c0 22 -4 52 -10 90l-63 376c-10 60 -15 118 -15 151c0 146 101 191 203 191c30 0 53 -4 72 -9v-125c-22 4 -42 6 -57 6c-45 0 -68 -19 -68 -73c0 -22 4 -52 10 -90l63 -376c10 -60 15 -118 15 -151c0 -146 -99 -191 -208 -191
c-28 0 -51 3 -67 8v126z" />
    <glyph glyph-name="mu" unicode="&#xb5;" horiz-adv-x="604" 
d="M227 -220h-162v712h152v-280c0 -36 6 -57 19 -71c13 -15 33 -22 54 -22c38 0 76 21 100 44v329h152v-492h-150v46l-2 1c-36 -34 -89 -58 -135 -58c-13 0 -31 2 -43 7l-2 -1z" />
    <glyph glyph-name="litre" unicode="&#x2113;" horiz-adv-x="413" 
d="M51 144l-33 57c28 26 55 51 80 77v258c0 141 64 214 143 214c71 0 116 -59 116 -155c0 -108 -57 -218 -159 -328v-66c0 -102 19 -136 61 -136c33 0 59 22 88 55l37 -48c-40 -57 -87 -86 -148 -86c-95 0 -137 71 -137 169v35c-12 -12 -36 -39 -48 -46zM198 363
c54 73 85 158 85 232c0 50 -14 81 -38 81c-28 0 -47 -40 -47 -132v-181z" />
    <glyph glyph-name="dotlessj" unicode="&#x237;" horiz-adv-x="281" 
d="M66 -24v516h152v-506c0 -91 -16 -134 -45 -164c-37 -38 -95 -53 -155 -53c-21 0 -43 2 -63 5v128c18 -3 36 -5 50 -5c53 0 61 29 61 79z" />
    <glyph glyph-name="jcircumflex" unicode="&#x135;" horiz-adv-x="281" 
d="M66 -24v516h152v-506c0 -91 -16 -134 -45 -164c-37 -38 -95 -53 -155 -53c-21 0 -43 2 -63 5v128c18 -3 36 -5 50 -5c53 0 61 29 61 79zM-34 563l118 164h118l118 -164h-102l-75 91l-75 -91h-102z" />
    <glyph glyph-name="kcommaaccent" unicode="&#x137;" horiz-adv-x="581" 
d="M63 0v764h152v-480l2 -1l172 209h173l-188 -220l202 -272h-180l-179 251l-2 -1v-250h-152zM248 -54h132l-80 -218h-102z" />
    <glyph glyph-name="lacute" unicode="&#x13a;" horiz-adv-x="278" 
d="M63 0v764h152v-764h-152zM288 990l-116 -164h-104l84 164h136z" />
    <glyph glyph-name="lcaron" unicode="&#x13e;" horiz-adv-x="416" 
d="M63 0v764h152v-764h-152zM309 764h132l-80 -218h-102z" />
    <glyph glyph-name="lcommaaccent" unicode="&#x13c;" horiz-adv-x="278" 
d="M63 0v764h152v-764h-152zM97 -54h132l-80 -218h-102z" />
    <glyph glyph-name="lslash" unicode="&#x142;" horiz-adv-x="298" 
d="M73 0v255l-80 -53v136l80 53v373h152v-271l80 53v-136l-80 -53v-357h-152z" />
    <glyph glyph-name="ldot" unicode="&#x140;" horiz-adv-x="425" 
d="M63 0v764h152v-764h-152zM353 246c-42 0 -77 35 -77 77s35 77 77 77s77 -35 77 -77s-35 -77 -77 -77z" />
    <glyph glyph-name="nacute" unicode="&#x144;" horiz-adv-x="600" 
d="M63 0v492h150v-45l2 -1c38 31 90 57 152 57c52 0 98 -18 129 -50c30 -32 43 -75 43 -146v-307h-152v282c0 37 -5 55 -17 69c-13 15 -31 21 -52 21c-39 0 -76 -20 -103 -41v-331h-152zM438 727l-116 -164h-104l84 164h136z" />
    <glyph glyph-name="ncaron" unicode="&#x148;" horiz-adv-x="600" 
d="M63 0v492h150v-45l2 -1c38 31 90 57 152 57c52 0 98 -18 129 -50c30 -32 43 -75 43 -146v-307h-152v282c0 37 -5 55 -17 69c-13 15 -31 21 -52 21c-39 0 -76 -20 -103 -41v-331h-152zM477 727l-118 -164h-118l-118 164h102l75 -91l75 91h102z" />
    <glyph glyph-name="ntilde" unicode="&#xf1;" horiz-adv-x="600" 
d="M63 0v492h150v-45l2 -1c38 31 90 57 152 57c52 0 98 -18 129 -50c30 -32 43 -75 43 -146v-307h-152v282c0 37 -5 55 -17 69c-13 15 -31 21 -52 21c-39 0 -76 -20 -103 -41v-331h-152zM292 596c-27 13 -46 23 -69 23c-39 0 -66 -25 -87 -50l-2 1v113c20 20 50 37 89 37
c26 0 53 -9 85 -24c27 -13 46 -23 69 -23c39 0 66 25 87 50l2 -1v-113c-20 -20 -50 -37 -89 -37c-26 0 -53 9 -85 24z" />
    <glyph glyph-name="ncommaaccent" unicode="&#x146;" horiz-adv-x="600" 
d="M63 0v492h150v-45l2 -1c38 31 90 57 152 57c52 0 98 -18 129 -50c30 -32 43 -75 43 -146v-307h-152v282c0 37 -5 55 -17 69c-13 15 -31 21 -52 21c-39 0 -76 -20 -103 -41v-331h-152zM258 -54h132l-80 -218h-102z" />
    <glyph glyph-name="napostrophe" unicode="&#x149;" horiz-adv-x="600" 
d="M63 0v492h150v-45l2 -1c38 31 90 57 152 57c52 0 98 -18 129 -50c30 -32 43 -75 43 -146v-307h-152v282c0 37 -5 55 -17 69c-13 15 -31 21 -52 21c-39 0 -76 -20 -103 -41v-331h-152zM104 772h132l-80 -218h-102z" />
    <glyph glyph-name="ograve" unicode="&#xf2;" horiz-adv-x="612" 
d="M184 246c0 -70 53 -126 122 -126s122 56 122 126s-53 126 -122 126s-122 -56 -122 -126zM32 246c0 145 117 257 274 257s274 -112 274 -257s-117 -257 -274 -257s-274 112 -274 257zM284 563l-116 164h136l84 -164h-104z" />
    <glyph glyph-name="oacute" unicode="&#xf3;" horiz-adv-x="612" 
d="M184 246c0 -70 53 -126 122 -126s122 56 122 126s-53 126 -122 126s-122 -56 -122 -126zM32 246c0 145 117 257 274 257s274 -112 274 -257s-117 -257 -274 -257s-274 112 -274 257zM444 727l-116 -164h-104l84 164h136z" />
    <glyph glyph-name="ocircumflex" unicode="&#xf4;" horiz-adv-x="612" 
d="M184 246c0 -70 53 -126 122 -126s122 56 122 126s-53 126 -122 126s-122 -56 -122 -126zM32 246c0 145 117 257 274 257s274 -112 274 -257s-117 -257 -274 -257s-274 112 -274 257zM129 563l118 164h118l118 -164h-102l-75 91l-75 -91h-102z" />
    <glyph glyph-name="otilde" unicode="&#xf5;" horiz-adv-x="612" 
d="M184 246c0 -70 53 -126 122 -126s122 56 122 126s-53 126 -122 126s-122 -56 -122 -126zM32 246c0 145 117 257 274 257s274 -112 274 -257s-117 -257 -274 -257s-274 112 -274 257zM298 596c-27 13 -46 23 -69 23c-39 0 -66 -25 -87 -50l-2 1v113c20 20 50 37 89 37
c26 0 53 -9 85 -24c27 -13 46 -23 69 -23c39 0 66 25 87 50l2 -1v-113c-20 -20 -50 -37 -89 -37c-26 0 -53 9 -85 24z" />
    <glyph glyph-name="odieresis" unicode="&#xf6;" horiz-adv-x="612" 
d="M184 246c0 -70 53 -126 122 -126s122 56 122 126s-53 126 -122 126s-122 -56 -122 -126zM32 246c0 145 117 257 274 257s274 -112 274 -257s-117 -257 -274 -257s-274 112 -274 257zM194 571c-42 0 -77 35 -77 77s35 77 77 77s77 -35 77 -77s-35 -77 -77 -77zM418 571
c-42 0 -77 35 -77 77s35 77 77 77s77 -35 77 -77s-35 -77 -77 -77z" />
    <glyph glyph-name="omacron" unicode="&#x14d;" horiz-adv-x="612" 
d="M184 246c0 -70 53 -126 122 -126s122 56 122 126s-53 126 -122 126s-122 -56 -122 -126zM32 246c0 145 117 257 274 257s274 -112 274 -257s-117 -257 -274 -257s-274 112 -274 257zM153 595v100h306v-100h-306z" />
    <glyph glyph-name="obreve" unicode="&#x14f;" horiz-adv-x="612" 
d="M184 246c0 -70 53 -126 122 -126s122 56 122 126s-53 126 -122 126s-122 -56 -122 -126zM32 246c0 145 117 257 274 257s274 -112 274 -257s-117 -257 -274 -257s-274 112 -274 257zM306 563c-102 0 -160 66 -163 164h84c3 -47 24 -87 79 -87s76 40 79 87h84
c-3 -98 -61 -164 -163 -164z" />
    <glyph glyph-name="ohungarumlaut" unicode="&#x151;" horiz-adv-x="612" 
d="M184 246c0 -70 53 -126 122 -126s122 56 122 126s-53 126 -122 126s-122 -56 -122 -126zM32 246c0 145 117 257 274 257s274 -112 274 -257s-117 -257 -274 -257s-274 112 -274 257zM314 563l74 164h110l-97 -164h-87zM150 563l74 164h110l-97 -164h-87z" />
    <glyph glyph-name="oslash" unicode="&#xf8;" horiz-adv-x="612" 
d="M184 247c0 -27 7 -51 19 -71l158 182c-16 9 -35 14 -55 14c-70 0 -122 -55 -122 -125zM32 246c0 145 116 257 274 257c55 0 105 -14 147 -38l46 53l49 -40l-44 -51c47 -46 76 -109 76 -181c0 -145 -116 -257 -274 -257c-55 0 -105 14 -147 38l-46 -53l-49 40l44 51
c-47 46 -76 109 -76 181zM428 245c0 27 -7 51 -19 71l-158 -182c16 -9 35 -14 55 -14c70 0 122 55 122 125z" />
    <glyph glyph-name="oslashacute" unicode="&#x1ff;" horiz-adv-x="612" 
d="M184 247c0 -27 7 -51 19 -71l158 182c-16 9 -35 14 -55 14c-70 0 -122 -55 -122 -125zM32 246c0 145 116 257 274 257c55 0 105 -14 147 -38l46 53l49 -40l-44 -51c47 -46 76 -109 76 -181c0 -145 -116 -257 -274 -257c-55 0 -105 14 -147 38l-46 -53l-49 40l44 51
c-47 46 -76 109 -76 181zM428 245c0 27 -7 51 -19 71l-158 -182c16 -9 35 -14 55 -14c70 0 122 55 122 125zM444 727l-116 -164h-104l84 164h136z" />
    <glyph glyph-name="oe" unicode="&#x153;" horiz-adv-x="950" 
d="M683 503c117 0 231 -79 231 -245c0 -16 -1 -39 -3 -52h-330c18 -68 72 -99 142 -99c54 0 112 19 164 54v-127c-47 -29 -118 -45 -184 -45c-84 0 -157 29 -205 82h-2c-47 -51 -114 -82 -195 -82c-153 0 -269 111 -269 257c0 145 115 257 269 257c82 0 149 -32 196 -84h2
c47 53 111 84 184 84zM184 247c0 -71 51 -127 120 -127c68 0 119 55 119 125c0 71 -52 127 -120 127s-119 -55 -119 -125zM679 387c-46 0 -85 -28 -99 -85h194c-8 53 -46 85 -95 85z" />
    <glyph glyph-name="racute" unicode="&#x155;" horiz-adv-x="401" 
d="M63 0v492h149v-66l2 -1c34 48 82 73 143 73c10 0 21 -1 32 -4v-143c-12 3 -27 5 -41 5c-53 0 -97 -16 -133 -58v-298h-152zM338 727l-116 -164h-104l84 164h136z" />
    <glyph glyph-name="rcaron" unicode="&#x159;" horiz-adv-x="401" 
d="M63 0v492h149v-66l2 -1c34 48 82 73 143 73c10 0 21 -1 32 -4v-143c-12 3 -27 5 -41 5c-53 0 -97 -16 -133 -58v-298h-152zM377 727l-118 -164h-118l-118 164h102l75 -91l75 91h102z" />
    <glyph glyph-name="rcommaaccent" unicode="&#x157;" horiz-adv-x="401" 
d="M63 0v492h149v-66l2 -1c34 48 82 73 143 73c10 0 21 -1 32 -4v-143c-12 3 -27 5 -41 5c-53 0 -97 -16 -133 -58v-298h-152zM106 -54h132l-80 -218h-102z" />
    <glyph glyph-name="sacute" unicode="&#x15b;" horiz-adv-x="494" 
d="M51 29v133c67 -39 145 -56 192 -56c42 0 67 11 67 38c0 38 -55 34 -129 53c-93 23 -148 62 -148 143c1 104 93 163 215 163c59 0 132 -12 188 -39v-131c-65 37 -141 53 -185 53c-40 0 -64 -12 -64 -35c0 -36 53 -33 126 -51c94 -23 151 -59 151 -144
c-1 -108 -95 -167 -221 -167c-59 0 -134 12 -192 40zM385 727l-116 -164h-104l84 164h136z" />
    <glyph glyph-name="scircumflex" unicode="&#x15d;" horiz-adv-x="494" 
d="M51 29v133c67 -39 145 -56 192 -56c42 0 67 11 67 38c0 38 -55 34 -129 53c-93 23 -148 62 -148 143c1 104 93 163 215 163c59 0 132 -12 188 -39v-131c-65 37 -141 53 -185 53c-40 0 -64 -12 -64 -35c0 -36 53 -33 126 -51c94 -23 151 -59 151 -144
c-1 -108 -95 -167 -221 -167c-59 0 -134 12 -192 40zM70 563l118 164h118l118 -164h-102l-75 91l-75 -91h-102z" />
    <glyph glyph-name="scaron" unicode="&#x161;" horiz-adv-x="494" 
d="M51 29v133c67 -39 145 -56 192 -56c42 0 67 11 67 38c0 38 -55 34 -129 53c-93 23 -148 62 -148 143c1 104 93 163 215 163c59 0 132 -12 188 -39v-131c-65 37 -141 53 -185 53c-40 0 -64 -12 -64 -35c0 -36 53 -33 126 -51c94 -23 151 -59 151 -144
c-1 -108 -95 -167 -221 -167c-59 0 -134 12 -192 40zM424 727l-118 -164h-118l-118 164h102l75 -91l75 91h102z" />
    <glyph glyph-name="scommaaccent" unicode="&#x219;" horiz-adv-x="494" 
d="M51 29v133c67 -39 145 -56 192 -56c42 0 67 11 67 38c0 38 -55 34 -129 53c-93 23 -148 62 -148 143c1 104 93 163 215 163c59 0 132 -12 188 -39v-131c-65 37 -141 53 -185 53c-40 0 -64 -12 -64 -35c0 -36 53 -33 126 -51c94 -23 151 -59 151 -144
c-1 -108 -95 -167 -221 -167c-59 0 -134 12 -192 40zM205 -54h132l-80 -218h-102z" />
    <glyph glyph-name="germandbls" unicode="&#xdf;" horiz-adv-x="655" 
d="M63 0v558c0 74 21 130 67 166c38 30 100 51 183 51c80 0 144 -19 185 -48c45 -33 68 -82 68 -145c0 -46 -13 -92 -28 -124c-27 -5 -52 -11 -74 -19c-32 -12 -54 -27 -54 -54c0 -34 35 -44 90 -70c59 -28 129 -66 129 -162c0 -111 -97 -164 -200 -164
c-60 0 -120 18 -158 38v130c43 -27 107 -51 151 -51c33 0 57 13 57 42c0 38 -39 44 -100 73c-70 34 -117 78 -117 154c0 49 20 88 54 117c20 17 52 36 92 48c2 8 4 19 4 30c0 16 -5 40 -26 56c-16 12 -40 18 -72 18c-33 0 -58 -6 -74 -21c-18 -16 -25 -40 -25 -75v-548h-152
z" />
    <glyph glyph-name="tcaron" unicode="&#x165;" horiz-adv-x="410" 
d="M143 38c-26 28 -43 69 -43 147v181h-80v126h80v128l152 26v-154h130v-126h-130v-165c0 -48 11 -84 57 -84c25 0 53 10 73 20v-121c-23 -15 -68 -27 -111 -27c-50 0 -97 16 -128 49zM357 772h132l-80 -218h-102z" />
    <glyph glyph-name="uni021B" unicode="&#x21b;" horiz-adv-x="410" 
d="M143 38c-26 28 -43 69 -43 147v181h-80v126h80v128l152 26v-154h130v-126h-130v-165c0 -48 11 -84 57 -84c25 0 53 10 73 20v-121c-23 -15 -68 -27 -111 -27c-50 0 -97 16 -128 49zM185 -54h132l-80 -218h-102z" />
    <glyph glyph-name="tbar" unicode="&#x167;" horiz-adv-x="418" 
d="M24 191v118h80v65h-80v118h80v128l152 26v-154h130v-118h-130v-65h130v-118h-130c1 -46 12 -79 57 -79c25 0 53 10 73 20v-116c-23 -15 -68 -27 -111 -27c-50 0 -97 16 -128 49c-26 28 -43 69 -43 147v6h-80z" />
    <glyph glyph-name="ugrave" unicode="&#xf9;" horiz-adv-x="605" 
d="M110 38c-32 33 -47 78 -47 151v303h152v-280c0 -36 6 -57 19 -71c13 -15 33 -22 54 -22c38 0 76 21 100 44v329h152v-492h-150v46l-2 1c-38 -33 -86 -58 -150 -58c-57 0 -100 20 -128 49zM280 563l-116 164h136l84 -164h-104z" />
    <glyph glyph-name="uacute" unicode="&#xfa;" horiz-adv-x="605" 
d="M110 38c-32 33 -47 78 -47 151v303h152v-280c0 -36 6 -57 19 -71c13 -15 33 -22 54 -22c38 0 76 21 100 44v329h152v-492h-150v46l-2 1c-38 -33 -86 -58 -150 -58c-57 0 -100 20 -128 49zM440 727l-116 -164h-104l84 164h136z" />
    <glyph glyph-name="ucircumflex" unicode="&#xfb;" horiz-adv-x="605" 
d="M110 38c-32 33 -47 78 -47 151v303h152v-280c0 -36 6 -57 19 -71c13 -15 33 -22 54 -22c38 0 76 21 100 44v329h152v-492h-150v46l-2 1c-38 -33 -86 -58 -150 -58c-57 0 -100 20 -128 49zM125 563l118 164h118l118 -164h-102l-75 91l-75 -91h-102z" />
    <glyph glyph-name="utilde" unicode="&#x169;" horiz-adv-x="605" 
d="M110 38c-32 33 -47 78 -47 151v303h152v-280c0 -36 6 -57 19 -71c13 -15 33 -22 54 -22c38 0 76 21 100 44v329h152v-492h-150v46l-2 1c-38 -33 -86 -58 -150 -58c-57 0 -100 20 -128 49zM294 596c-27 13 -46 23 -69 23c-39 0 -66 -25 -87 -50l-2 1v113
c20 20 50 37 89 37c26 0 53 -9 85 -24c27 -13 46 -23 69 -23c39 0 66 25 87 50l2 -1v-113c-20 -20 -50 -37 -89 -37c-26 0 -53 9 -85 24z" />
    <glyph glyph-name="udieresis" unicode="&#xfc;" horiz-adv-x="605" 
d="M110 38c-32 33 -47 78 -47 151v303h152v-280c0 -36 6 -57 19 -71c13 -15 33 -22 54 -22c38 0 76 21 100 44v329h152v-492h-150v46l-2 1c-38 -33 -86 -58 -150 -58c-57 0 -100 20 -128 49zM190 571c-42 0 -77 35 -77 77s35 77 77 77s77 -35 77 -77s-35 -77 -77 -77z
M414 571c-42 0 -77 35 -77 77s35 77 77 77s77 -35 77 -77s-35 -77 -77 -77z" />
    <glyph glyph-name="umacron" unicode="&#x16b;" horiz-adv-x="605" 
d="M110 38c-32 33 -47 78 -47 151v303h152v-280c0 -36 6 -57 19 -71c13 -15 33 -22 54 -22c38 0 76 21 100 44v329h152v-492h-150v46l-2 1c-38 -33 -86 -58 -150 -58c-57 0 -100 20 -128 49zM149 595v100h306v-100h-306z" />
    <glyph glyph-name="ubreve" unicode="&#x16d;" horiz-adv-x="605" 
d="M110 38c-32 33 -47 78 -47 151v303h152v-280c0 -36 6 -57 19 -71c13 -15 33 -22 54 -22c38 0 76 21 100 44v329h152v-492h-150v46l-2 1c-38 -33 -86 -58 -150 -58c-57 0 -100 20 -128 49zM302 563c-102 0 -160 66 -163 164h84c3 -47 24 -87 79 -87s76 40 79 87h84
c-3 -98 -61 -164 -163 -164z" />
    <glyph glyph-name="uring" unicode="&#x16f;" horiz-adv-x="605" 
d="M110 38c-32 33 -47 78 -47 151v303h152v-280c0 -36 6 -57 19 -71c13 -15 33 -22 54 -22c38 0 76 21 100 44v329h152v-492h-150v46l-2 1c-38 -33 -86 -58 -150 -58c-57 0 -100 20 -128 49zM302 541c-75 0 -130 54 -130 124s55 124 130 124s130 -54 130 -124
s-55 -124 -130 -124zM302 605c36 0 58 27 58 60s-22 60 -58 60s-58 -27 -58 -60s22 -60 58 -60z" />
    <glyph glyph-name="uhungarumlaut" unicode="&#x171;" horiz-adv-x="605" 
d="M110 38c-32 33 -47 78 -47 151v303h152v-280c0 -36 6 -57 19 -71c13 -15 33 -22 54 -22c38 0 76 21 100 44v329h152v-492h-150v46l-2 1c-38 -33 -86 -58 -150 -58c-57 0 -100 20 -128 49zM310 563l74 164h110l-97 -164h-87zM146 563l74 164h110l-97 -164h-87z" />
    <glyph glyph-name="uogonek" unicode="&#x173;" horiz-adv-x="605" 
d="M110 38c-32 33 -47 78 -47 151v303h152v-280c0 -36 6 -57 19 -71c13 -15 33 -22 54 -22c38 0 76 21 100 44v329h152v-492c-68 -32 -94 -71 -94 -99c0 -24 15 -40 45 -40c14 0 32 3 49 7v-87c-19 -6 -49 -12 -79 -12c-84 0 -138 43 -138 107c0 39 19 85 67 124v46l-2 1
c-38 -33 -86 -58 -150 -58c-57 0 -100 20 -128 49z" />
    <glyph glyph-name="wgrave" unicode="&#x1e81;" horiz-adv-x="828" 
d="M180 0l-168 492h158l50 -155c16 -49 30 -95 43 -142h2c14 46 30 95 46 142l53 155h113l52 -155c17 -51 31 -95 45 -142h2c13 47 27 92 43 142l50 155h147l-168 -492h-142l-44 131c-16 48 -31 96 -44 141h-2c-13 -45 -28 -91 -45 -140l-45 -132h-146zM398 563l-116 164
h136l84 -164h-104z" />
    <glyph glyph-name="wacute" unicode="&#x1e83;" horiz-adv-x="828" 
d="M180 0l-168 492h158l50 -155c16 -49 30 -95 43 -142h2c14 46 30 95 46 142l53 155h113l52 -155c17 -51 31 -95 45 -142h2c13 47 27 92 43 142l50 155h147l-168 -492h-142l-44 131c-16 48 -31 96 -44 141h-2c-13 -45 -28 -91 -45 -140l-45 -132h-146zM558 727l-116 -164
h-104l84 164h136z" />
    <glyph glyph-name="wcircumflex" unicode="&#x175;" horiz-adv-x="828" 
d="M180 0l-168 492h158l50 -155c16 -49 30 -95 43 -142h2c14 46 30 95 46 142l53 155h113l52 -155c17 -51 31 -95 45 -142h2c13 47 27 92 43 142l50 155h147l-168 -492h-142l-44 131c-16 48 -31 96 -44 141h-2c-13 -45 -28 -91 -45 -140l-45 -132h-146zM243 563l118 164h118
l118 -164h-102l-75 91l-75 -91h-102z" />
    <glyph glyph-name="wdieresis" unicode="&#x1e85;" horiz-adv-x="828" 
d="M180 0l-168 492h158l50 -155c16 -49 30 -95 43 -142h2c14 46 30 95 46 142l53 155h113l52 -155c17 -51 31 -95 45 -142h2c13 47 27 92 43 142l50 155h147l-168 -492h-142l-44 131c-16 48 -31 96 -44 141h-2c-13 -45 -28 -91 -45 -140l-45 -132h-146zM308 571
c-42 0 -77 35 -77 77s35 77 77 77s77 -35 77 -77s-35 -77 -77 -77zM532 571c-42 0 -77 35 -77 77s35 77 77 77s77 -35 77 -77s-35 -77 -77 -77z" />
    <glyph glyph-name="ygrave" unicode="&#x1ef3;" horiz-adv-x="558" 
d="M232 -220h-155l129 274l-200 438h160l51 -122c22 -53 43 -105 63 -156h2c22 54 44 106 67 159l52 119h151zM262 563l-116 164h136l84 -164h-104z" />
    <glyph glyph-name="yacute" unicode="&#xfd;" horiz-adv-x="558" 
d="M232 -220h-155l129 274l-200 438h160l51 -122c22 -53 43 -105 63 -156h2c22 54 44 106 67 159l52 119h151zM422 727l-116 -164h-104l84 164h136z" />
    <glyph glyph-name="ycircumflex" unicode="&#x177;" horiz-adv-x="558" 
d="M232 -220h-155l129 274l-200 438h160l51 -122c22 -53 43 -105 63 -156h2c22 54 44 106 67 159l52 119h151zM107 563l118 164h118l118 -164h-102l-75 91l-75 -91h-102z" />
    <glyph glyph-name="ydieresis" unicode="&#xff;" horiz-adv-x="558" 
d="M232 -220h-155l129 274l-200 438h160l51 -122c22 -53 43 -105 63 -156h2c22 54 44 106 67 159l52 119h151zM172 571c-42 0 -77 35 -77 77s35 77 77 77s77 -35 77 -77s-35 -77 -77 -77zM396 571c-42 0 -77 35 -77 77s35 77 77 77s77 -35 77 -77s-35 -77 -77 -77z" />
    <glyph glyph-name="zacute" unicode="&#x17a;" horiz-adv-x="495" 
d="M467 0h-452l-1 2l221 362l-1 2h-198v126h436l1 -2l-221 -362l1 -2h214v-126zM386 727l-116 -164h-104l84 164h136z" />
    <glyph glyph-name="zcaron" unicode="&#x17e;" horiz-adv-x="495" 
d="M467 0h-452l-1 2l221 362l-1 2h-198v126h436l1 -2l-221 -362l1 -2h214v-126zM425 727l-118 -164h-118l-118 164h102l75 -91l75 91h102z" />
    <glyph glyph-name="zdotaccent" unicode="&#x17c;" horiz-adv-x="495" 
d="M467 0h-452l-1 2l221 362l-1 2h-198v126h436l1 -2l-221 -362l1 -2h214v-126zM248 571c-42 0 -77 35 -77 77s35 77 77 77s77 -35 77 -77s-35 -77 -77 -77z" />
    <glyph glyph-name="i.TRK" horiz-adv-x="277" 
d="M63 0v492h152v-492h-152z" />
    <glyph glyph-name="tilde.cap" 
d="M258 828c-27 13 -46 23 -69 23c-39 0 -66 -25 -87 -50l-2 1v113c20 20 50 37 89 37c26 0 53 -9 85 -24c27 -13 46 -23 69 -23c39 0 66 25 87 50l2 -1v-113c-20 -20 -50 -37 -89 -37c-26 0 -53 9 -85 24z" />
    <glyph glyph-name="dieresis.cap" 
d="M154 803c-42 0 -77 35 -77 77s35 77 77 77s77 -35 77 -77s-35 -77 -77 -77zM378 803c-42 0 -77 35 -77 77s35 77 77 77s77 -35 77 -77s-35 -77 -77 -77z" />
    <glyph glyph-name="macron.cap" 
d="M113 827v100h306v-100h-306z" />
    <glyph glyph-name="breve.cap" 
d="M266 795c-102 0 -160 66 -163 164h84c3 -47 24 -87 79 -87s76 40 79 87h84c-3 -98 -61 -164 -163 -164z" />
    <glyph glyph-name="ring.cap" 
d="M266 773c-75 0 -130 54 -130 124s55 124 130 124s130 -54 130 -124s-55 -124 -130 -124zM266 837c36 0 58 27 58 60s-22 60 -58 60s-58 -27 -58 -60s22 -60 58 -60z" />
    <glyph glyph-name="hungarumlaut.cap" 
d="M274 795l74 164h110l-97 -164h-87zM110 795l74 164h110l-97 -164h-87z" />
    <glyph glyph-name="dotaccent.cap" 
d="M266 803c-42 0 -77 35 -77 77s35 77 77 77s77 -35 77 -77s-35 -77 -77 -77z" />
    <glyph glyph-name="grave.cap" 
d="M244 795l-116 164h136l84 -164h-104z" />
    <glyph glyph-name="acute.cap" 
d="M404 959l-116 -164h-104l84 164h136z" />
    <glyph glyph-name="circumflex.cap" 
d="M89 795l118 164h118l118 -164h-102l-75 91l-75 -91h-102z" />
    <glyph glyph-name="caron.cap" 
d="M443 959l-118 -164h-118l-118 164h102l75 -91l75 91h102z" />
    <glyph glyph-name="question" unicode="?" horiz-adv-x="514" 
d="M132 223l-24 178c119 0 203 26 203 102c0 49 -36 88 -98 88c-40 0 -92 -18 -138 -48l-19 142c42 29 108 50 170 50c140 0 245 -95 245 -220c0 -121 -100 -204 -198 -217v-75h-141zM128 76c0 48 40 87 88 87s88 -39 88 -87s-40 -87 -88 -87s-88 39 -88 87z" />
    <glyph glyph-name="gbreve" unicode="&#x11f;" horiz-adv-x="599" 
d="M103 -195v144c50 -31 107 -50 159 -50c74 0 120 38 120 111v27l-2 1c-29 -21 -74 -33 -115 -33c-119 0 -229 92 -229 241c0 144 103 257 256 257c47 0 88 -11 123 -28l119 21v-486c0 -155 -106 -241 -263 -241c-63 0 -125 15 -168 36zM190 252c0 -72 44 -123 115 -123
c27 0 56 8 77 21v206c-19 10 -48 18 -75 18c-79 0 -117 -58 -117 -122zM305 563c-102 0 -160 66 -163 164h84c3 -47 24 -87 79 -87s76 40 79 87h84c-3 -98 -61 -164 -163 -164z" />
    <glyph glyph-name="gdotaccent" unicode="&#x121;" horiz-adv-x="599" 
d="M103 -195v144c50 -31 107 -50 159 -50c74 0 120 38 120 111v27l-2 1c-29 -21 -74 -33 -115 -33c-119 0 -229 92 -229 241c0 144 103 257 256 257c47 0 88 -11 123 -28l119 21v-486c0 -155 -106 -241 -263 -241c-63 0 -125 15 -168 36zM190 252c0 -72 44 -123 115 -123
c27 0 56 8 77 21v206c-19 10 -48 18 -75 18c-79 0 -117 -58 -117 -122zM305 571c-42 0 -77 35 -77 77s35 77 77 77s77 -35 77 -77s-35 -77 -77 -77z" />
    <glyph glyph-name="gcommaaccent" unicode="&#x123;" horiz-adv-x="599" 
d="M103 -195v144c50 -31 107 -50 159 -50c74 0 120 38 120 111v27l-2 1c-29 -21 -74 -33 -115 -33c-119 0 -229 92 -229 241c0 144 103 257 256 257c47 0 88 -11 123 -28l119 21v-486c0 -155 -106 -241 -263 -241c-63 0 -125 15 -168 36zM190 252c0 -72 44 -123 115 -123
c27 0 56 8 77 21v206c-19 10 -48 18 -75 18c-79 0 -117 -58 -117 -122zM214 556l80 218h102l-50 -218h-132z" />
    <glyph glyph-name="dcroat" unicode="&#x111;" horiz-adv-x="606" 
d="M254 569v108h137v87h152v-87h67v-108h-67v-569h-149v26l-2 1c-33 -23 -77 -38 -125 -38c-124 0 -231 96 -231 247c0 155 113 267 260 267c37 0 67 -7 93 -18l2 1v83h-137zM189 243c0 -73 42 -130 117 -130c33 0 63 11 85 25v220c-22 11 -49 19 -79 19
c-80 0 -123 -60 -123 -134z" />
    <glyph glyph-name="quotedblleft" unicode="&#x201c;" horiz-adv-x="453" 
d="M34 460l93 282h95l-58 -282h-130zM221 460l93 282h95l-58 -282h-130z" />
    <glyph glyph-name="quotesinglbase" unicode="&#x201a;" horiz-adv-x="266" 
d="M44 -118l58 282h130l-93 -282h-95z" />
    <glyph glyph-name="quotedblbase" unicode="&#x201e;" horiz-adv-x="453" 
d="M44 -118l58 282h130l-93 -282h-95zM231 -118l58 282h130l-93 -282h-95z" />
    <glyph glyph-name="lessequal" unicode="&#x2264;" horiz-adv-x="716" 
d="M82 373v80l552 212v-116l-351 -135v-2l351 -135v-116zM82 0v94h552v-94h-552z" />
    <glyph glyph-name="greaterequal" unicode="&#x2265;" horiz-adv-x="716" 
d="M82 161v116l351 135v2l-351 135v116l552 -212v-80zM82 0v94h552v-94h-552z" />
    <glyph glyph-name="Tcommaaccent" unicode="&#x162;" horiz-adv-x="657" 
d="M249 0v585h-234v139h627v-139h-234v-585h-51l-12 -37c55 -11 88 -43 88 -91c0 -56 -45 -93 -113 -93c-34 0 -65 9 -87 19l20 63c21 -11 45 -19 65 -19s39 8 39 26c0 33 -59 40 -89 42l29 90h-48z" />
    <glyph glyph-name="gcircumflex" unicode="&#x11d;" horiz-adv-x="599" 
d="M103 -195v144c50 -31 107 -50 159 -50c74 0 120 38 120 111v27l-2 1c-29 -21 -74 -33 -115 -33c-119 0 -229 92 -229 241c0 144 103 257 256 257c47 0 88 -11 123 -28l119 21v-486c0 -155 -106 -241 -263 -241c-63 0 -125 15 -168 36zM190 252c0 -72 44 -123 115 -123
c27 0 56 8 77 21v206c-19 10 -48 18 -75 18c-79 0 -117 -58 -117 -122zM128 563l118 164h118l118 -164h-102l-75 91l-75 -91h-102z" />
    <glyph glyph-name="scedilla" unicode="&#x15f;" horiz-adv-x="494" 
d="M192 -87l24 77c-54 3 -116 15 -165 39v133c67 -39 145 -56 192 -56c42 0 67 11 67 38c0 38 -55 34 -129 53c-93 23 -148 62 -148 143c1 104 93 163 215 163c59 0 132 -12 188 -39v-131c-65 37 -141 53 -185 53c-40 0 -64 -12 -64 -35c0 -36 53 -33 126 -51
c94 -23 151 -59 151 -144c-1 -98 -79 -156 -187 -165l-9 -28c55 -11 88 -43 88 -91c0 -56 -45 -93 -113 -93c-34 0 -65 9 -87 19l21 66c21 -11 45 -19 65 -19s39 8 39 26c0 33 -59 40 -89 42z" />
    <glyph glyph-name="tcommaaccent" unicode="&#x163;" horiz-adv-x="410" 
d="M183 -90l28 87c-27 8 -50 22 -68 41c-26 28 -43 69 -43 147v181h-80v126h80v128l152 26v-154h130v-126h-130v-165c0 -48 11 -84 57 -84c25 0 53 10 73 20v-121c-23 -15 -68 -27 -114 -27l-8 -26c55 -11 88 -43 88 -91c0 -56 -45 -93 -113 -93c-34 0 -65 9 -87 19l20 63
c21 -11 45 -19 65 -19s39 8 39 26c0 33 -59 40 -89 42z" />
    <glyph glyph-name="P" unicode="P" horiz-adv-x="639" 
d="M66 0v724h215c177 0 332 -49 332 -231c0 -167 -122 -234 -338 -234h-50v-259h-159zM225 388h58c131 0 171 29 171 97c0 80 -55 100 -175 100h-54v-197z" />
    <glyph glyph-name="ampersand" unicode="&#x26;" horiz-adv-x="712" 
d="M539 434h154l-114 -268l162 -164l-1 -2h-187l-54 54c-43 -39 -108 -65 -199 -65c-183 0 -265 109 -265 213c0 85 56 148 134 187l-9 9c-40 41 -72 92 -72 154c0 103 88 184 214 184c127 0 213 -84 213 -184c0 -74 -48 -131 -103 -167l-29 -19l91 -94zM304 118
c46 0 76 15 95 38l-141 142l-13 -6c-42 -20 -57 -56 -57 -84c0 -41 32 -90 116 -90zM238 546c0 -23 11 -43 36 -69l20 -21l27 20c28 21 44 41 44 69c0 36 -27 61 -64 61c-40 0 -63 -27 -63 -60z" />
    <glyph glyph-name="at" unicode="@" horiz-adv-x="795" 
d="M23 246c0 213 160 373 375 373c217 0 374 -164 374 -365c0 -128 -63 -200 -163 -200c-53 0 -97 20 -122 51h-2c-30 -32 -75 -52 -123 -52c-93 0 -160 72 -160 174c0 107 73 212 194 212c35 0 67 -9 96 -29l83 13l-18 -199c-1 -11 -1 -20 -1 -24c0 -40 18 -78 63 -78
s83 37 83 128c0 157 -113 304 -303 304c-188 0 -306 -144 -306 -309c0 -162 115 -307 303 -307c85 0 154 29 205 70l36 -57c-64 -50 -148 -78 -238 -78c-217 0 -376 160 -376 373zM379 136c27 0 58 11 79 40c-2 15 -1 31 1 53l9 100c-16 14 -41 27 -68 27
c-64 0 -97 -69 -97 -128c0 -53 27 -92 76 -92z" />
    <glyph glyph-name="onequarter" unicode="&#xbc;" horiz-adv-x="988" 
d="M315 -13h-128l473 737h128zM760 0v86h-221l-1 2l230 346h107v-262h58v-86h-58v-86h-115zM691 172h69v51c0 21 1 44 2 61l-2 1c-11 -20 -24 -42 -38 -63l-32 -48zM147 294v299l-91 -31v103l206 70v-441h-115z" />
    <glyph glyph-name="four.superior" unicode="&#x2074;" horiz-adv-x="421" 
d="M219 422v86h-221l-1 2l230 346h107v-262h58v-86h-58v-86h-115zM150 594h69v51c0 21 1 44 2 61l-2 1c-11 -20 -24 -42 -38 -63l-32 -48z" />
    <glyph glyph-name="one.superior" unicode="&#xb9;" horiz-adv-x="331" 
d="M129 422v299l-91 -31v103l206 70v-441h-115z" />
    <glyph glyph-name="agrave" unicode="&#xe0;" horiz-adv-x="537" 
d="M203 -11c-42 0 -82 10 -114 32c-36 25 -58 64 -58 115c0 54 25 95 60 119c38 26 87 35 138 35c29 0 58 -3 85 -9v19c0 24 -8 42 -19 52c-14 13 -40 21 -76 21c-55 0 -105 -18 -144 -39v131c40 20 100 38 172 38c66 0 125 -15 164 -47c37 -30 55 -74 55 -136v-167
c0 -23 9 -39 30 -39c8 0 17 2 25 6v-114c-17 -9 -44 -15 -73 -15c-40 0 -79 11 -106 39h-2c-32 -23 -81 -41 -137 -41zM245 101c26 0 51 9 69 20v72c-16 5 -38 7 -54 7c-39 0 -78 -12 -78 -50c0 -32 28 -49 63 -49zM246 563l-116 164h136l84 -164h-104z" />
    <glyph glyph-name="aacute" unicode="&#xe1;" horiz-adv-x="537" 
d="M203 -11c-42 0 -82 10 -114 32c-36 25 -58 64 -58 115c0 54 25 95 60 119c38 26 87 35 138 35c29 0 58 -3 85 -9v19c0 24 -8 42 -19 52c-14 13 -40 21 -76 21c-55 0 -105 -18 -144 -39v131c40 20 100 38 172 38c66 0 125 -15 164 -47c37 -30 55 -74 55 -136v-167
c0 -23 9 -39 30 -39c8 0 17 2 25 6v-114c-17 -9 -44 -15 -73 -15c-40 0 -79 11 -106 39h-2c-32 -23 -81 -41 -137 -41zM245 101c26 0 51 9 69 20v72c-16 5 -38 7 -54 7c-39 0 -78 -12 -78 -50c0 -32 28 -49 63 -49zM406 727l-116 -164h-104l84 164h136z" />
    <glyph glyph-name="acircumflex" unicode="&#xe2;" horiz-adv-x="537" 
d="M203 -11c-42 0 -82 10 -114 32c-36 25 -58 64 -58 115c0 54 25 95 60 119c38 26 87 35 138 35c29 0 58 -3 85 -9v19c0 24 -8 42 -19 52c-14 13 -40 21 -76 21c-55 0 -105 -18 -144 -39v131c40 20 100 38 172 38c66 0 125 -15 164 -47c37 -30 55 -74 55 -136v-167
c0 -23 9 -39 30 -39c8 0 17 2 25 6v-114c-17 -9 -44 -15 -73 -15c-40 0 -79 11 -106 39h-2c-32 -23 -81 -41 -137 -41zM245 101c26 0 51 9 69 20v72c-16 5 -38 7 -54 7c-39 0 -78 -12 -78 -50c0 -32 28 -49 63 -49zM91 563l118 164h118l118 -164h-102l-75 91l-75 -91h-102z
" />
    <glyph glyph-name="atilde" unicode="&#xe3;" horiz-adv-x="537" 
d="M203 -11c-42 0 -82 10 -114 32c-36 25 -58 64 -58 115c0 54 25 95 60 119c38 26 87 35 138 35c29 0 58 -3 85 -9v19c0 24 -8 42 -19 52c-14 13 -40 21 -76 21c-55 0 -105 -18 -144 -39v131c40 20 100 38 172 38c66 0 125 -15 164 -47c37 -30 55 -74 55 -136v-167
c0 -23 9 -39 30 -39c8 0 17 2 25 6v-114c-17 -9 -44 -15 -73 -15c-40 0 -79 11 -106 39h-2c-32 -23 -81 -41 -137 -41zM245 101c26 0 51 9 69 20v72c-16 5 -38 7 -54 7c-39 0 -78 -12 -78 -50c0 -32 28 -49 63 -49zM260 596c-27 13 -46 23 -69 23c-39 0 -66 -25 -87 -50
l-2 1v113c20 20 50 37 89 37c26 0 53 -9 85 -24c27 -13 46 -23 69 -23c39 0 66 25 87 50l2 -1v-113c-20 -20 -50 -37 -89 -37c-26 0 -53 9 -85 24z" />
    <glyph glyph-name="adieresis" unicode="&#xe4;" horiz-adv-x="537" 
d="M203 -11c-42 0 -82 10 -114 32c-36 25 -58 64 -58 115c0 54 25 95 60 119c38 26 87 35 138 35c29 0 58 -3 85 -9v19c0 24 -8 42 -19 52c-14 13 -40 21 -76 21c-55 0 -105 -18 -144 -39v131c40 20 100 38 172 38c66 0 125 -15 164 -47c37 -30 55 -74 55 -136v-167
c0 -23 9 -39 30 -39c8 0 17 2 25 6v-114c-17 -9 -44 -15 -73 -15c-40 0 -79 11 -106 39h-2c-32 -23 -81 -41 -137 -41zM245 101c26 0 51 9 69 20v72c-16 5 -38 7 -54 7c-39 0 -78 -12 -78 -50c0 -32 28 -49 63 -49zM156 571c-42 0 -77 35 -77 77s35 77 77 77s77 -35 77 -77
s-35 -77 -77 -77zM380 571c-42 0 -77 35 -77 77s35 77 77 77s77 -35 77 -77s-35 -77 -77 -77z" />
    <glyph glyph-name="amacron" unicode="&#x101;" horiz-adv-x="537" 
d="M203 -11c-42 0 -82 10 -114 32c-36 25 -58 64 -58 115c0 54 25 95 60 119c38 26 87 35 138 35c29 0 58 -3 85 -9v19c0 24 -8 42 -19 52c-14 13 -40 21 -76 21c-55 0 -105 -18 -144 -39v131c40 20 100 38 172 38c66 0 125 -15 164 -47c37 -30 55 -74 55 -136v-167
c0 -23 9 -39 30 -39c8 0 17 2 25 6v-114c-17 -9 -44 -15 -73 -15c-40 0 -79 11 -106 39h-2c-32 -23 -81 -41 -137 -41zM245 101c26 0 51 9 69 20v72c-16 5 -38 7 -54 7c-39 0 -78 -12 -78 -50c0 -32 28 -49 63 -49zM115 595v100h306v-100h-306z" />
    <glyph glyph-name="abreve" unicode="&#x103;" horiz-adv-x="537" 
d="M203 -11c-42 0 -82 10 -114 32c-36 25 -58 64 -58 115c0 54 25 95 60 119c38 26 87 35 138 35c29 0 58 -3 85 -9v19c0 24 -8 42 -19 52c-14 13 -40 21 -76 21c-55 0 -105 -18 -144 -39v131c40 20 100 38 172 38c66 0 125 -15 164 -47c37 -30 55 -74 55 -136v-167
c0 -23 9 -39 30 -39c8 0 17 2 25 6v-114c-17 -9 -44 -15 -73 -15c-40 0 -79 11 -106 39h-2c-32 -23 -81 -41 -137 -41zM245 101c26 0 51 9 69 20v72c-16 5 -38 7 -54 7c-39 0 -78 -12 -78 -50c0 -32 28 -49 63 -49zM268 563c-102 0 -160 66 -163 164h84c3 -47 24 -87 79 -87
s76 40 79 87h84c-3 -98 -61 -164 -163 -164z" />
    <glyph glyph-name="aring" unicode="&#xe5;" horiz-adv-x="537" 
d="M203 -11c-42 0 -82 10 -114 32c-36 25 -58 64 -58 115c0 54 25 95 60 119c38 26 87 35 138 35c29 0 58 -3 85 -9v19c0 24 -8 42 -19 52c-14 13 -40 21 -76 21c-55 0 -105 -18 -144 -39v131c40 20 100 38 172 38c66 0 125 -15 164 -47c37 -30 55 -74 55 -136v-167
c0 -23 9 -39 30 -39c8 0 17 2 25 6v-114c-17 -9 -44 -15 -73 -15c-40 0 -79 11 -106 39h-2c-32 -23 -81 -41 -137 -41zM245 101c26 0 51 9 69 20v72c-16 5 -38 7 -54 7c-39 0 -78 -12 -78 -50c0 -32 28 -49 63 -49zM268 541c-75 0 -130 54 -130 124s55 124 130 124
s130 -54 130 -124s-55 -124 -130 -124zM268 605c36 0 58 27 58 60s-22 60 -58 60s-58 -27 -58 -60s22 -60 58 -60z" />
    <glyph glyph-name="a.alt" horiz-adv-x="607" 
d="M36 236c0 156 114 267 263 267c45 0 90 -11 129 -31l116 20v-492h-149v27l-2 1c-30 -24 -75 -39 -124 -39c-126 0 -233 97 -233 247zM189 244c0 -73 43 -131 119 -131c30 0 60 10 84 25v220c-22 10 -50 19 -80 19c-80 0 -123 -59 -123 -133z" />
    <glyph glyph-name="agrave.alt" horiz-adv-x="607" 
d="M36 236c0 156 114 267 263 267c45 0 90 -11 129 -31l116 20v-492h-149v27l-2 1c-30 -24 -75 -39 -124 -39c-126 0 -233 97 -233 247zM189 244c0 -73 43 -131 119 -131c30 0 60 10 84 25v220c-22 10 -50 19 -80 19c-80 0 -123 -59 -123 -133zM283 563l-116 164h136
l84 -164h-104z" />
    <glyph glyph-name="aacute.alt" horiz-adv-x="607" 
d="M36 236c0 156 114 267 263 267c45 0 90 -11 129 -31l116 20v-492h-149v27l-2 1c-30 -24 -75 -39 -124 -39c-126 0 -233 97 -233 247zM189 244c0 -73 43 -131 119 -131c30 0 60 10 84 25v220c-22 10 -50 19 -80 19c-80 0 -123 -59 -123 -133zM443 727l-116 -164h-104
l84 164h136z" />
    <glyph glyph-name="acircumflex.alt" horiz-adv-x="607" 
d="M36 236c0 156 114 267 263 267c45 0 90 -11 129 -31l116 20v-492h-149v27l-2 1c-30 -24 -75 -39 -124 -39c-126 0 -233 97 -233 247zM189 244c0 -73 43 -131 119 -131c30 0 60 10 84 25v220c-22 10 -50 19 -80 19c-80 0 -123 -59 -123 -133zM128 563l118 164h118
l118 -164h-102l-75 91l-75 -91h-102z" />
    <glyph glyph-name="atilde.alt" horiz-adv-x="607" 
d="M36 236c0 156 114 267 263 267c45 0 90 -11 129 -31l116 20v-492h-149v27l-2 1c-30 -24 -75 -39 -124 -39c-126 0 -233 97 -233 247zM189 244c0 -73 43 -131 119 -131c30 0 60 10 84 25v220c-22 10 -50 19 -80 19c-80 0 -123 -59 -123 -133zM297 596
c-27 13 -46 23 -69 23c-39 0 -66 -25 -87 -50l-2 1v113c20 20 50 37 89 37c26 0 53 -9 85 -24c27 -13 46 -23 69 -23c39 0 66 25 87 50l2 -1v-113c-20 -20 -50 -37 -89 -37c-26 0 -53 9 -85 24z" />
    <glyph glyph-name="adieresis.alt" horiz-adv-x="607" 
d="M36 236c0 156 114 267 263 267c45 0 90 -11 129 -31l116 20v-492h-149v27l-2 1c-30 -24 -75 -39 -124 -39c-126 0 -233 97 -233 247zM189 244c0 -73 43 -131 119 -131c30 0 60 10 84 25v220c-22 10 -50 19 -80 19c-80 0 -123 -59 -123 -133zM193 571c-42 0 -77 35 -77 77
s35 77 77 77s77 -35 77 -77s-35 -77 -77 -77zM417 571c-42 0 -77 35 -77 77s35 77 77 77s77 -35 77 -77s-35 -77 -77 -77z" />
    <glyph glyph-name="amacron.alt" horiz-adv-x="607" 
d="M36 236c0 156 114 267 263 267c45 0 90 -11 129 -31l116 20v-492h-149v27l-2 1c-30 -24 -75 -39 -124 -39c-126 0 -233 97 -233 247zM189 244c0 -73 43 -131 119 -131c30 0 60 10 84 25v220c-22 10 -50 19 -80 19c-80 0 -123 -59 -123 -133zM152 595v100h306v-100h-306z
" />
    <glyph glyph-name="abreve.alt" horiz-adv-x="607" 
d="M36 236c0 156 114 267 263 267c45 0 90 -11 129 -31l116 20v-492h-149v27l-2 1c-30 -24 -75 -39 -124 -39c-126 0 -233 97 -233 247zM189 244c0 -73 43 -131 119 -131c30 0 60 10 84 25v220c-22 10 -50 19 -80 19c-80 0 -123 -59 -123 -133zM305 563
c-102 0 -160 66 -163 164h84c3 -47 24 -87 79 -87s76 40 79 87h84c-3 -98 -61 -164 -163 -164z" />
    <glyph glyph-name="aring.alt" horiz-adv-x="607" 
d="M36 236c0 156 114 267 263 267c45 0 90 -11 129 -31l116 20v-492h-149v27l-2 1c-30 -24 -75 -39 -124 -39c-126 0 -233 97 -233 247zM189 244c0 -73 43 -131 119 -131c30 0 60 10 84 25v220c-22 10 -50 19 -80 19c-80 0 -123 -59 -123 -133zM305 541
c-75 0 -130 54 -130 124s55 124 130 124s130 -54 130 -124s-55 -124 -130 -124zM305 605c36 0 58 27 58 60s-22 60 -58 60s-58 -27 -58 -60s22 -60 58 -60z" />
    <glyph glyph-name="ae.alt" horiz-adv-x="912" 
d="M305 113c39 0 78 17 98 39c-10 27 -15 58 -15 91v115c-21 10 -49 19 -79 19c-77 0 -120 -59 -120 -132c0 -74 44 -132 116 -132zM665 -11c-85 0 -158 28 -208 77c-43 -41 -112 -77 -189 -77c-126 0 -232 97 -232 247c0 156 114 267 260 267c41 0 81 -9 116 -26l118 21
v-34l2 -1c29 25 68 40 113 40c117 0 231 -79 231 -245c0 -16 -1 -39 -3 -52h-330c18 -68 72 -99 142 -99c54 0 112 19 164 54v-127c-47 -29 -118 -45 -184 -45zM641 387c-46 0 -85 -28 -99 -85h194c-8 53 -46 85 -95 85z" />
    <glyph glyph-name="aeacute.alt" horiz-adv-x="912" 
d="M631 727l-116 -164h-104l84 164h136zM305 113c39 0 78 17 98 39c-10 27 -15 58 -15 91v115c-21 10 -49 19 -79 19c-77 0 -120 -59 -120 -132c0 -74 44 -132 116 -132zM665 -11c-85 0 -158 28 -208 77c-43 -41 -112 -77 -189 -77c-126 0 -232 97 -232 247
c0 156 114 267 260 267c41 0 81 -9 116 -26l118 21v-34l2 -1c29 25 68 40 113 40c117 0 231 -79 231 -245c0 -16 -1 -39 -3 -52h-330c18 -68 72 -99 142 -99c54 0 112 19 164 54v-127c-47 -29 -118 -45 -184 -45zM641 387c-46 0 -85 -28 -99 -85h194c-8 53 -46 85 -95 85z
" />
    <glyph glyph-name="ij" unicode="&#x133;" horiz-adv-x="559" 
d="M51 648c0 48 40 87 88 87s88 -39 88 -87s-40 -87 -88 -87s-88 39 -88 87zM63 0v492h152v-492h-152zM332 648c0 48 40 87 88 87s88 -39 88 -87s-40 -87 -88 -87s-88 39 -88 87zM344 -24v516h152v-506c0 -91 -16 -134 -45 -164c-37 -38 -96 -53 -149 -53c-28 0 -54 4 -69 8
v125c16 -3 36 -5 50 -5c53 0 61 29 61 79z" />
    <glyph glyph-name="thorn" unicode="&#xfe;" horiz-adv-x="604" 
d="M63 -220v984h152v-295l2 -1c30 21 72 35 119 35c125 0 233 -98 233 -251c0 -157 -114 -263 -261 -263c-38 0 -67 7 -91 16l-2 -1v-224h-152zM215 351v-221c20 -10 49 -18 78 -18c81 0 123 61 123 133c0 75 -44 131 -117 131c-34 0 -62 -12 -84 -25z" />
    <glyph glyph-name="aogonek.alt" horiz-adv-x="607" 
d="M36 236c0 156 114 267 263 267c45 0 90 -11 129 -31l116 20v-492c-72 -31 -94 -71 -94 -99c0 -24 15 -40 45 -40c14 0 32 3 49 7v-87c-19 -6 -49 -12 -79 -12c-84 0 -138 43 -138 107c0 39 19 85 68 124v27l-2 1c-30 -24 -75 -39 -124 -39c-126 0 -233 97 -233 247z
M189 244c0 -73 43 -131 119 -131c30 0 60 10 84 25v220c-22 10 -50 19 -80 19c-80 0 -123 -59 -123 -133z" />
    <glyph glyph-name="aogonek" unicode="&#x105;" horiz-adv-x="537" 
d="M521 6c-75 -23 -114 -72 -114 -106c0 -21 15 -37 44 -37c12 0 32 3 50 8v-90c-20 -6 -49 -12 -79 -12c-84 0 -138 44 -138 108c0 41 22 92 82 132v2c-9 5 -17 11 -24 19h-2c-32 -23 -81 -41 -137 -41c-42 0 -82 10 -114 32c-36 25 -58 64 -58 115c0 54 25 95 60 119
c38 26 87 35 138 35c29 0 58 -3 85 -9v19c0 24 -8 42 -19 52c-14 13 -40 21 -76 21c-55 0 -105 -18 -144 -39v131c40 20 100 38 172 38c66 0 125 -15 164 -47c37 -30 55 -74 55 -136v-167c0 -23 9 -39 30 -39c8 0 17 2 25 6v-114zM245 101c26 0 51 9 69 20v72
c-16 5 -38 7 -54 7c-39 0 -78 -12 -78 -50c0 -32 28 -49 63 -49z" />
    <glyph glyph-name="apple" unicode="&#xf8ff;" horiz-adv-x="994" 
d="M478 674c-1 6 -2 17 -2 27c0 40 17 82 51 120s72 60 120 66c9 1 15 1 15 1c1 -7 2 -15 2 -25c0 -48 -21 -96 -56 -132c-37 -38 -81 -57 -130 -57zM203 96c-61 82 -106 200 -106 317c0 82 22 148 67 197s104 74 177 74c32 0 52 -5 94 -21c34 -13 43 -16 56 -16
c12 0 21 3 79 23c27 9 56 14 88 14c78 0 140 -29 187 -87c-67 -49 -101 -106 -101 -176c0 -77 42 -140 125 -183c-23 -65 -55 -122 -98 -171c-42 -48 -81 -72 -116 -72c-17 0 -35 5 -82 22c-30 11 -49 17 -77 17c-22 0 -41 -4 -65 -13c-50 -19 -69 -26 -87 -26
c-40 0 -91 34 -141 101z" />
    <glyph glyph-name="estimated" unicode="&#x212e;" horiz-adv-x="740" 
d="M168 137c0 -88 124 -126 208 -126s180 38 238 118l33 -7c-65 -89 -158 -139 -274 -139c-197 0 -337 143 -337 322c0 180 141 323 336 323c165 0 324 -102 333 -296c1 -31 -1 -32 -32 -32h-473c-34 0 -32 -2 -32 -32v-131zM200 328h342c34 0 32 2 32 32v125
c0 64 -91 115 -203 115s-203 -51 -203 -115v-125c0 -30 -2 -32 32 -32z" />
    <glyph glyph-name="IJ" unicode="&#x132;" horiz-adv-x="695" 
d="M66 0v724h159v-724h-159zM470 235v489h159v-486c0 -93 -18 -146 -48 -183c-40 -49 -105 -66 -170 -66c-44 0 -82 9 -107 19v143c31 -12 68 -19 92 -19c60 0 74 27 74 103z" />
    <glyph glyph-name="zero" unicode="0" horiz-adv-x="628" 
d="M314 -11c-80 0 -153 34 -200 98c-45 62 -66 148 -66 275s21 213 66 275c47 64 120 98 200 98c81 0 153 -34 200 -98c45 -62 66 -148 66 -275s-21 -213 -66 -275c-47 -64 -119 -98 -200 -98zM314 131c33 0 57 17 73 39c24 34 34 91 34 193c0 91 -8 154 -34 191
c-16 23 -40 39 -73 39c-32 0 -57 -16 -73 -39c-25 -36 -34 -100 -34 -193c0 -99 10 -157 34 -191c16 -22 41 -39 73 -39z" />
    <glyph glyph-name="one" unicode="1" horiz-adv-x="517" 
d="M212 0v533l-147 -53v144l306 111v-735h-159z" />
    <glyph glyph-name="two" unicode="2" horiz-adv-x="582" 
d="M17 2l221 292c72 96 108 149 108 204c0 61 -44 95 -108 95c-52 0 -115 -23 -169 -65v149c42 30 103 58 184 58c143 0 254 -87 254 -223c0 -81 -39 -156 -114 -256l-87 -115l1 -2h226v-139h-515z" />
    <glyph glyph-name="three" unicode="3" horiz-adv-x="570" 
d="M48 45v153c67 -41 136 -69 201 -69c68 0 113 32 113 87c0 52 -39 85 -125 85h-72v120h68c78 0 115 36 115 87c0 55 -43 87 -108 87c-50 0 -107 -19 -149 -42v142c43 26 101 40 161 40c147 0 255 -86 255 -201c0 -71 -41 -132 -107 -157v-2c81 -28 121 -96 121 -171
c0 -128 -117 -215 -264 -215c-78 0 -159 22 -209 56z" />
    <glyph glyph-name="four" unicode="4" horiz-adv-x="655" 
d="M1 155l-1 2l369 567h141v-448h110v-121h-110v-155h-158v155h-351zM220 276h135v105c0 36 1 75 2 109l-2 1c-19 -32 -43 -70 -65 -104l-71 -109z" />
    <glyph glyph-name="five" unicode="5" horiz-adv-x="567" 
d="M43 33l11 142c58 -29 120 -46 177 -46c80 0 135 33 135 89c0 84 -127 101 -209 101c-28 0 -59 -2 -85 -6l30 411h395l-10 -139h-237l-11 -144c135 -4 286 -63 286 -221c0 -141 -120 -231 -285 -231c-76 0 -152 19 -197 44z" />
    <glyph glyph-name="six" unicode="6" horiz-adv-x="626" 
d="M289 724h185l-191 -283l1 -1c19 9 45 15 76 15c120 0 221 -93 221 -225c0 -139 -115 -241 -270 -241c-150 0 -269 94 -269 253c0 80 27 147 90 242zM205 230c0 -56 43 -108 109 -108c60 0 110 43 110 105c0 59 -45 106 -109 106c-61 0 -110 -43 -110 -103z" />
    <glyph glyph-name="seven" unicode="7" horiz-adv-x="568" 
d="M92 0l237 585h-288v139h510l1 -2l-293 -722h-167z" />
    <glyph glyph-name="eight" unicode="8" horiz-adv-x="644" 
d="M322 432c53 0 96 37 96 87c0 49 -42 86 -96 86s-96 -37 -96 -86c0 -50 43 -87 96 -87zM322 120c63 0 110 42 110 99c0 58 -49 101 -110 101s-110 -43 -110 -101c0 -57 47 -99 110 -99zM322 -11c-157 0 -273 89 -273 219c0 78 43 145 122 175v2c-64 25 -99 82 -99 148
c0 116 109 202 250 202s250 -86 250 -202c0 -66 -35 -123 -99 -148v-2c79 -30 122 -97 122 -175c0 -130 -116 -219 -273 -219z" />
    <glyph glyph-name="nine" unicode="9" horiz-adv-x="614" 
d="M334 0h-184l171 276l-1 2c-17 -6 -39 -9 -62 -9c-111 0 -222 85 -222 222c0 141 116 243 270 243c147 0 268 -92 268 -246c0 -83 -36 -158 -87 -241zM302 393c64 0 109 45 109 102c0 55 -44 107 -109 107c-59 0 -110 -43 -110 -105c0 -57 44 -104 110 -104z" />
    <glyph glyph-name="two.superior" unicode="&#xb2;" horiz-adv-x="375" 
d="M9 422l-1 2l139 175c46 58 62 87 62 114c0 28 -19 45 -55 45c-37 0 -77 -16 -112 -39v106c31 19 72 38 127 38c102 0 159 -57 159 -138c0 -46 -19 -88 -67 -148l-41 -50l1 -2h120v-103h-332z" />
    <glyph glyph-name="three.superior" unicode="&#xb3;" horiz-adv-x="367" 
d="M36 452v108c38 -25 78 -43 122 -43c40 0 62 15 62 41c0 24 -21 38 -70 38h-46v84h43c47 0 65 17 65 40c0 25 -23 41 -61 41c-35 0 -72 -13 -99 -26v101c26 14 65 27 112 27c95 0 166 -52 166 -122c0 -43 -26 -76 -63 -91v-2c48 -19 72 -57 72 -101
c0 -82 -82 -132 -174 -132c-56 0 -99 18 -129 37z" />
    <glyph glyph-name="onehalf" unicode="&#xbd;" horiz-adv-x="1006" 
d="M608 0l-1 2l139 175c46 58 62 87 62 114c0 28 -19 45 -55 45c-37 0 -77 -16 -112 -39v106c31 19 72 38 127 38c102 0 159 -57 159 -138c0 -46 -19 -88 -67 -148l-41 -50l1 -2h120v-103h-332zM315 -13h-128l473 737h128zM147 294v299l-91 -31v103l206 70v-441h-115z" />
    <glyph glyph-name="threequarters" unicode="&#xbe;" horiz-adv-x="1018" 
d="M69 324v108c38 -25 78 -43 122 -43c40 0 62 15 62 41c0 24 -21 38 -70 38h-46v84h43c47 0 65 17 65 40c0 25 -23 41 -61 41c-35 0 -72 -13 -99 -26v101c26 14 65 27 112 27c95 0 166 -52 166 -122c0 -43 -26 -76 -63 -91v-2c48 -19 72 -57 72 -101
c0 -82 -82 -132 -174 -132c-56 0 -99 18 -129 37zM345 -13h-128l473 737h128zM790 0v86h-221l-1 2l230 346h107v-262h58v-86h-58v-86h-115zM721 172h69v51c0 21 1 44 2 61l-2 1c-11 -20 -24 -42 -38 -63l-32 -48z" />
    <glyph glyph-name="kgreenlandic" unicode="&#x138;" horiz-adv-x="581" 
d="M63 0v492h152v-208l2 -1l172 209h173l-188 -220l202 -272h-180l-179 251l-2 -1v-250h-152z" />
    <glyph glyph-name="ordfeminine.alt" horiz-adv-x="396" 
d="M22 561c0 102 74 174 171 174c29 0 57 -7 82 -20l83 15v-322h-106v16l-2 1c-21 -15 -48 -24 -79 -24c-80 0 -149 63 -149 160zM131 567c0 -44 25 -79 71 -79c17 0 33 6 47 14v134c-12 5 -28 10 -45 10c-48 0 -73 -36 -73 -79z" />
    <glyph glyph-name="longs" unicode="&#x17f;" horiz-adv-x="318" 
d="M90 0v366h-70v126h70v73c0 69 14 128 52 164c35 34 90 46 139 46c28 0 57 -4 84 -14v-123c-19 5 -49 9 -66 9c-47 0 -57 -30 -57 -72v-575h-152z" />
    <glyph glyph-name="ff" unicode="&#xfb00;" horiz-adv-x="721" 
d="M439 0v366h-197v-366h-152v366h-70v126h70v73c0 69 14 128 52 164c35 34 90 46 139 46c28 0 57 -4 84 -14v-123c-19 5 -49 9 -66 9c-47 0 -57 -30 -57 -72v-83h197v73c0 69 14 128 52 164c35 34 90 46 139 46c28 0 57 -4 84 -14v-123c-19 5 -49 9 -66 9
c-47 0 -57 -30 -57 -72v-83h114v-126h-114v-366h-152z" />
    <glyph glyph-name="periodcentered.cap" horiz-adv-x="306" 
d="M61 362c0 50 42 90 92 90s92 -40 92 -90s-42 -90 -92 -90s-92 40 -92 90z" />
    <glyph glyph-name="at.cap" horiz-adv-x="795" 
d="M23 362c0 213 160 373 375 373c217 0 374 -164 374 -365c0 -128 -63 -200 -163 -200c-53 0 -97 20 -122 51h-2c-30 -32 -75 -52 -123 -52c-93 0 -160 72 -160 174c0 107 73 212 194 212c35 0 67 -9 96 -29l83 13l-18 -199c-1 -11 -1 -20 -1 -24c0 -40 18 -78 63 -78
s83 37 83 128c0 157 -113 304 -303 304c-188 0 -306 -144 -306 -309c0 -162 115 -307 303 -307c85 0 154 29 205 70l36 -57c-64 -50 -148 -78 -238 -78c-217 0 -376 160 -376 373zM379 252c27 0 58 11 79 40c-2 15 -1 31 1 53l9 100c-16 14 -41 27 -68 27
c-64 0 -97 -69 -97 -128c0 -53 27 -92 76 -92z" />
    <glyph glyph-name="Eth" unicode="&#xd0;" horiz-adv-x="758" 
d="M2 313v111h79v300h203c129 0 229 -21 304 -73c89 -62 139 -164 139 -288c0 -114 -43 -211 -120 -274c-74 -60 -178 -89 -330 -89h-196v313h-79zM240 139h44c103 0 169 18 214 57c43 37 70 95 70 167c0 76 -30 140 -84 178c-51 36 -120 44 -201 44h-43v-161h131v-111h-131
v-174z" />
    <glyph glyph-name="uni00A0" unicode="&#xa0;" horiz-adv-x="237" 
 />
    <glyph glyph-name="uni0394" unicode="&#x394;" horiz-adv-x="724" 
d="M34 0v98l249 626h159l249 -626v-98h-657zM208 139h306l-93 245c-20 54 -40 108 -59 161h-2c-19 -54 -39 -107 -59 -161z" />
    <glyph glyph-name="uni03A9" unicode="&#x3a9;" horiz-adv-x="775" 
d="M387 592c-125 0 -192 -90 -192 -209c0 -106 53 -205 138 -280v-103h-312v139h120l1 2c-66 69 -107 164 -107 263c0 185 143 331 352 331s352 -146 352 -331c0 -99 -41 -194 -107 -263l1 -2h120v-139h-312v103c85 75 138 174 138 280c0 119 -67 209 -192 209z" />
    <glyph glyph-name="uni03BC" unicode="&#x3bc;" horiz-adv-x="604" 
d="M227 -220h-162v712h152v-280c0 -36 6 -57 19 -71c13 -15 33 -22 54 -22c38 0 76 21 100 44v329h152v-492h-150v46l-2 1c-36 -34 -89 -58 -135 -58c-13 0 -31 2 -43 7l-2 -1z" />
    </font>
</defs>
</svg>
